<svg width="180" height="180" viewBox="0 0 180 180" fill="none" xmlns="http://www.w3.org/2000/svg">
<mask id="mask0_153_803" style="mask-type:alpha" maskUnits="userSpaceOnUse" x="0" y="0" width="180" height="180">
<circle cx="90" cy="90" r="90" fill="#A1BBFA"/>
</mask>
<g mask="url(#mask0_153_803)">
<path d="M74.5809 169.966L81.8976 173.504C81.8976 173.504 76.3269 172.201 75.8549 174.367C75.7473 174.861 75.6226 175.213 75.8549 175.662C76.2498 176.426 77.1499 176.094 78.013 176.094C78.8586 176.094 80.828 176.312 82.6476 176.513L82.7608 176.525C84.1115 176.675 86.2137 176.957 86.2137 176.957V180.842H83.624C83.624 180.842 80.1878 180.726 78.013 180.41C76.312 180.163 75.3464 180.03 73.6969 179.547C72.3149 179.142 71.4193 179.084 70.2439 178.252C69.4657 177.701 68.8253 177.428 68.5175 176.525C68.1864 175.555 68.4694 174.842 68.9491 173.936C69.6275 172.654 70.4874 172.254 71.7361 171.517C73.0535 170.74 74.5809 169.966 74.5809 169.966Z" fill="#5890CB"/>
<rect width="4.65517" height="9.31034" rx="2.32759" transform="matrix(-1 0 0 1 89.5811 176.69)" fill="#283A0A"/>
<path d="M105.098 169.966L97.7814 173.504C97.7814 173.504 103.352 172.201 103.824 174.367C103.932 174.861 104.056 175.213 103.824 175.662C103.429 176.426 102.529 176.094 101.666 176.094C100.82 176.094 98.8509 176.312 97.0313 176.513L96.9182 176.525C95.5674 176.675 93.4652 176.957 93.4652 176.957V180.842H96.0549C96.0549 180.842 99.4911 180.726 101.666 180.41C103.367 180.163 104.333 180.03 105.982 179.547C107.364 179.142 108.26 179.084 109.435 178.252C110.213 177.701 110.854 177.428 111.161 176.525C111.493 175.555 111.21 174.842 110.73 173.936C110.051 172.654 109.192 172.254 107.943 171.517C106.625 170.74 105.098 169.966 105.098 169.966Z" fill="#5890CB"/>
<rect x="90.0981" y="176.69" width="4.65517" height="9.31034" rx="2.32759" fill="#283A0A"/>
<path d="M68.5434 127.596C68.2074 128.735 67.6506 130.503 67.6506 130.503C67.6506 130.503 69.1029 129.957 69.9813 129.499C70.8199 129.061 71.3037 128.817 72.0432 128.228C72.7384 127.674 73.0955 127.311 73.6509 126.618C74.3283 125.773 74.4307 125.109 75.0815 124.243C75.6801 123.447 76.0667 123.032 76.7998 122.356C77.5307 121.683 77.9549 121.3 78.8149 120.8C79.6002 120.343 80.1171 120.239 80.9514 119.879C82.0386 119.411 82.5691 118.883 83.7354 118.68C84.7546 118.502 85.3565 118.634 86.3827 118.762C87.1099 118.852 87.8022 119.298 88.1475 119.258C88.4929 119.217 89.2904 120.255 89.8232 119.935C90.3392 119.624 89.896 118.927 89.5164 118.514C89.1368 118.101 87.7724 117.939 87.7724 117.939C87.7724 117.939 87.027 117.777 86.5841 117.452C85.9672 117 85.8217 116.518 85.2118 116.056C84.6338 115.618 84.2768 115.386 83.5905 115.149C82.5674 114.796 81.9059 114.942 80.8227 114.966C79.8129 114.988 79.2465 115.069 78.25 115.234C77.1737 115.413 76.5176 115.408 75.5299 115.871C74.6889 116.265 74.293 116.639 73.5885 117.243C72.5982 118.092 72.0887 118.649 71.3621 119.731C70.4407 121.103 70.2113 122.045 69.6565 123.6C69.1118 125.126 69.0017 126.042 68.5434 127.596Z" fill="#8EBA42"/>
<rect width="1.27008" height="4.44029" rx="0.63504" transform="matrix(0.99734 -0.0789365 0.079189 0.996398 88.8621 118.733)" fill="#8EBA42"/>
<path d="M69.778 129.614C68.837 129.965 67.6929 130.588 67.6929 130.588L70.9294 127.095C70.9294 127.095 72.326 125.122 73.1849 123.922C74.1099 122.631 74.786 122.015 75.9809 120.969C77.0365 120.045 77.599 119.428 78.8702 118.836C80.2902 118.174 81.2253 118.032 82.7917 117.993C84.3708 117.952 86.7852 118.646 86.7852 118.646C86.7852 118.646 82.9043 119.148 80.7894 120.355C79.1871 121.27 78.4659 122.08 77.1758 123.4C75.4637 125.152 74.9252 125.28 73.3684 127.172C72.2055 128.585 71.6158 128.929 69.778 129.614Z" fill="#55751E"/>
<rect width="0.762149" height="2.69024" rx="0.381074" transform="matrix(0.995444 -0.104265 0.104507 0.993629 88.5339 118.538)" fill="#8EBA42"/>
<path d="M118.029 151.825C118.029 167.109 105.613 174.35 90.298 174.35C74.9825 174.35 62.5669 167.109 62.5669 151.825C62.5669 136.541 74.9825 127.369 90.298 127.369C105.613 127.369 118.029 136.541 118.029 151.825Z" fill="#5890CB"/>
<path d="M83.4136 122.417C83.689 121.549 84.4851 120.934 85.3959 120.934H95.2174C96.1204 120.934 96.9117 121.538 97.1898 122.398C97.6486 123.815 98.4245 125.951 99.327 127.37C99.9543 128.355 101.069 129.565 102.231 130.703C103.576 132.02 102.681 134.449 100.799 134.449H79.4408C77.3687 134.449 76.5561 131.49 78.2158 130.249C79.5327 129.265 80.6887 128.248 81.2696 127.37C82.1943 125.972 82.9624 123.839 83.4136 122.417Z" fill="#5890CB"/>
<path d="M67.4972 155.217C65.4245 151.113 64.5704 146.327 64.2907 144.378C64.2497 144.092 63.8873 144.022 63.7649 144.283C62.8425 146.254 60.8453 151.665 62.8867 158.286C65.0697 165.365 68.8358 167.908 73.2054 170.514C77.575 173.12 82.5144 174.375 88.6832 174.375C93.8425 174.375 99.3364 173.912 102.226 173.088C104.141 172.542 107.484 170.459 109.52 169.115C109.96 168.825 109.703 168.171 109.182 168.25C106.914 168.593 103.32 169.151 101.205 169.548C96.4067 170.448 93.5249 170.415 88.7208 169.548C83.3228 168.573 80.0957 167.621 75.6121 164.336C71.8004 161.544 69.6651 159.509 67.4972 155.217Z" fill="#3C7BBC"/>
<path d="M82.3891 127.263C82.4117 127.783 82.4321 128.596 82.4321 128.596C82.4321 128.596 82.9574 128.164 83.2567 127.849C83.5425 127.548 83.7087 127.379 83.9318 127.029C84.1416 126.701 84.2382 126.499 84.3701 126.133C84.531 125.686 84.4791 125.396 84.626 124.945C84.7612 124.529 84.8627 124.302 85.0708 123.918C85.2784 123.535 85.4 123.316 85.6859 122.986C85.9469 122.685 86.1465 122.569 86.4417 122.301C86.8264 121.953 87.0537 121.818 87.5088 121.568C87.9066 121.35 88.1154 120.912 88.563 120.986C88.8669 121.036 89.2445 121.286 89.3821 121.22C89.5197 121.155 90.0044 121.254 90.0506 120.986C90.0807 120.81 89.946 120.539 89.8181 120.594C89.6902 120.649 89.0788 120.426 89.0788 120.426C89.0788 120.426 88.7704 120.52 88.5403 120.448C88.2199 120.348 87.9851 120.216 87.6662 120.111C87.364 120.011 87.1828 119.965 86.8642 119.964C86.3893 119.962 86.1355 120.117 85.6892 120.28C85.2732 120.432 85.0495 120.546 84.6594 120.756C84.238 120.982 83.9651 121.074 83.6209 121.406C83.3279 121.688 83.2167 121.9 83.0102 122.25C82.72 122.743 82.5878 123.046 82.4401 123.598C82.2528 124.299 82.2917 124.722 82.2826 125.446C82.2736 126.157 82.3583 126.553 82.3891 127.263Z" fill="#8EBA42"/>
<path d="M83.1889 127.925C82.8482 128.204 82.462 128.625 82.462 128.625L83.3085 126.717C83.3085 126.717 83.6075 125.7 83.7933 125.08C83.9935 124.413 84.1865 124.061 84.5337 123.458C84.8405 122.925 84.9861 122.589 85.4295 122.163C85.9249 121.687 86.2929 121.496 86.9374 121.257C87.5871 121.017 88.6881 120.963 88.6881 120.963C88.6881 120.963 87.1486 121.721 86.4424 122.522C85.9074 123.128 85.7234 123.567 85.3757 124.298C84.9143 125.268 84.7088 125.397 84.3318 126.403C84.0502 127.154 83.8543 127.381 83.1889 127.925Z" fill="#55751E"/>
<path d="M82.0808 143.586C82.0808 143.586 83.4954 145.259 84.667 145.138C85.6716 145.034 86.736 143.586 86.736 143.586" stroke="#0E1D01"/>
<path d="M91.1323 143.586C91.1323 143.586 92.547 145.259 93.7185 145.138C94.7231 145.034 95.7875 143.586 95.7875 143.586" stroke="#0E1D01"/>
<path d="M80.7878 147.466C80.7878 147.466 84.0183 149.97 86.4775 150.569C88.7346 151.118 90.1965 151.222 92.4258 150.569C94.6038 149.931 97.3396 147.466 97.3396 147.466" stroke="#0E1D01"/>
<circle cx="99.9257" cy="147.42" r="1.55172" fill="#2E5DA4"/>
<circle cx="78.2016" cy="147.42" r="1.55172" fill="#2E5DA4"/>
<path d="M72.1071 156.531C72.7399 156.664 73.1416 157.824 73.1416 157.824C73.1416 157.824 72.4106 160.108 72.883 161.444C73.3358 162.725 74.1293 163.208 75.2106 164.031C76.2889 164.851 77.0505 165.093 78.314 165.582C79.7761 166.149 80.6355 166.439 82.1933 166.617C83.3975 166.754 84.1432 166.245 85.2968 166.617C86.0718 166.866 86.2937 167.615 87.1071 167.651C87.7453 167.68 88.1013 166.822 88.6589 167.134C89.1336 167.399 89.2385 167.887 89.1761 168.427C89.0856 169.211 88.385 169.511 87.6244 169.72C87.1374 169.854 86.8294 169.803 86.3313 169.72C85.4402 169.572 85.1273 168.946 84.2623 168.686C83.2904 168.393 82.6815 168.567 81.6761 168.427C79.4191 168.114 78.0611 168.076 75.9865 167.134C74.3287 166.381 73.2453 165.969 72.1071 164.548C71.2032 163.419 70.8622 162.599 70.5554 161.186C70.2555 159.804 70.5554 157.565 70.5554 157.565C70.5554 157.565 71.3946 156.38 72.1071 156.531Z" fill="#2E5DA4"/>
<path d="M106.129 156.531C105.496 156.664 105.094 157.823 105.094 157.823C105.094 157.823 105.825 160.107 105.353 161.443C104.9 162.724 104.107 163.206 103.025 164.029C101.947 164.85 101.185 165.091 99.9219 165.581C98.4598 166.147 97.6004 166.437 96.0425 166.615C94.8383 166.752 94.0926 166.243 92.939 166.615C92.1639 166.864 91.9421 167.613 91.1286 167.649C90.4905 167.678 90.1344 166.82 89.5769 167.132C89.1021 167.397 88.9972 167.885 89.0596 168.425C89.1502 169.208 89.8507 169.509 90.6114 169.718C91.0983 169.851 91.4064 169.801 91.9045 169.718C92.7956 169.569 93.1085 168.944 93.9735 168.683C94.9455 168.391 95.5543 168.564 96.5598 168.425C98.8168 168.112 100.175 168.074 102.25 167.132C103.907 166.379 104.991 165.967 106.129 164.546C107.033 163.418 107.374 162.598 107.681 161.185C107.981 159.803 107.681 157.565 107.681 157.565C107.681 157.565 106.841 156.38 106.129 156.531Z" fill="#2E5DA4"/>
<path d="M215 46H62C62 46 66.4303 38.9011 70.2952 35.749C72.4755 33.9708 73.7449 32.8814 76.2861 31.9723C82.4295 29.7747 92.4157 35.749 92.4157 35.749C92.4157 35.749 98.0686 29.824 102.554 29.2747C106.418 28.8015 112.232 31.9723 112.232 31.9723C112.232 31.9723 114.423 30.2154 115.919 29.2747C118.48 27.6637 120.106 27.2235 122.831 26.0375C127.793 23.8786 130.452 20.7979 135.735 21.1818C140.171 21.5042 146.334 26.0375 146.334 26.0375C146.334 26.0375 153.206 19.8754 157.855 21.1818C161.823 22.2965 165.69 29.2747 165.69 29.2747C165.69 29.2747 173.742 27.6779 178.593 29.2747C183.975 31.0463 190.575 38.4466 190.575 38.4466C190.575 38.4466 199.874 36.2634 205.322 38.4466C209.62 40.1686 215 46 215 46Z" fill="#FFFEFF"/>
<path d="M200 123H145C145 123 146.593 120.444 147.982 119.31C148.766 118.669 149.222 118.277 150.136 117.95C152.344 117.159 155.934 119.31 155.934 119.31C155.934 119.31 157.966 117.177 159.578 116.979C160.967 116.809 163.057 117.95 163.057 117.95C163.057 117.95 163.845 117.318 164.383 116.979C165.303 116.399 165.888 116.24 166.867 115.814C168.651 115.036 169.607 113.927 171.506 114.065C173.101 114.182 175.316 115.814 175.316 115.814C175.316 115.814 177.786 113.595 179.458 114.065C180.884 114.467 182.274 116.979 182.274 116.979C182.274 116.979 185.169 116.404 186.913 116.979C188.847 117.617 191.22 120.281 191.22 120.281C191.22 120.281 194.562 119.495 196.521 120.281C198.066 120.901 200 123 200 123Z" fill="#FFFEFF"/>
<path d="M32 104H-23C-23 104 -21.4074 101.444 -20.0181 100.31C-19.2343 99.6695 -18.778 99.2773 -17.8645 98.95C-15.6561 98.1589 -12.0663 100.31 -12.0663 100.31C-12.0663 100.31 -10.0341 98.1767 -8.42169 97.9789C-7.03269 97.8085 -4.94277 98.95 -4.94277 98.95C-4.94277 98.95 -4.15512 98.3176 -3.61747 97.9789C-2.69675 97.3989 -2.11223 97.2405 -1.13253 96.8135C0.650999 96.0363 1.60693 94.9273 3.50602 95.0655C5.10081 95.1815 7.31627 96.8135 7.31627 96.8135C7.31627 96.8135 9.78629 94.5951 11.4578 95.0655C12.8841 95.4667 14.2741 97.9789 14.2741 97.9789C14.2741 97.9789 17.1688 97.404 18.9127 97.9789C20.8474 98.6167 23.2199 101.281 23.2199 101.281C23.2199 101.281 26.5624 100.495 28.5211 101.281C30.0659 101.901 32 104 32 104Z" fill="#FFFEFF"/>
</g>
</svg>
