<svg width="128" height="128" viewBox="0 0 128 128" fill="none" xmlns="http://www.w3.org/2000/svg">
<circle cx="64" cy="64" r="64" fill="#A1BBFA"/>
<mask id="mask0_216_1301" style="mask-type:alpha" maskUnits="userSpaceOnUse" x="0" y="0" width="128" height="128">
<circle cx="64" cy="64" r="64" fill="#A1BBFA"/>
</mask>
<g mask="url(#mask0_216_1301)">
<path d="M58 96H-35C-35 96 -32.3071 92.3086 -29.9578 90.6695C-28.6325 89.7448 -27.8609 89.1783 -26.3163 88.7056C-22.5821 87.5628 -16.512 90.6695 -16.512 90.6695C-16.512 90.6695 -13.0759 87.5885 -10.3494 87.3028C-8.00072 87.0568 -4.46687 88.7056 -4.46687 88.7056C-4.46687 88.7056 -3.13503 87.792 -2.2259 87.3028C-0.669048 86.4651 0.319324 86.2362 1.97591 85.6195C4.99169 84.4969 6.60809 82.8949 9.81928 83.0945C12.5159 83.2622 16.2621 85.6195 16.2621 85.6195C16.2621 85.6195 20.4386 82.4152 23.2651 83.0945C25.6767 83.6742 28.0271 87.3028 28.0271 87.3028C28.0271 87.3028 32.9218 86.4725 35.8705 87.3028C39.1419 88.2241 43.1536 92.0723 43.1536 92.0723C43.1536 92.0723 48.8055 90.937 52.1175 92.0723C54.7297 92.9677 58 96 58 96Z" fill="#FFFEFF"/>
<path d="M130 37H75C75 37 76.5926 34.4444 77.9819 33.3096C78.7657 32.6695 79.222 32.2773 80.1355 31.95C82.3439 31.1589 85.9337 33.3096 85.9337 33.3096C85.9337 33.3096 87.9659 31.1767 89.5783 30.9789C90.9673 30.8085 93.0572 31.95 93.0572 31.95C93.0572 31.95 93.8449 31.3176 94.3825 30.9789C95.3032 30.3989 95.8878 30.2405 96.8675 29.8135C98.651 29.0363 99.6069 27.9273 101.506 28.0655C103.101 28.1815 105.316 29.8135 105.316 29.8135C105.316 29.8135 107.786 27.5951 109.458 28.0655C110.884 28.4667 112.274 30.9789 112.274 30.9789C112.274 30.9789 115.169 30.404 116.913 30.9789C118.847 31.6167 121.22 34.2808 121.22 34.2808C121.22 34.2808 124.562 33.4948 126.521 34.2808C128.066 34.9007 130 37 130 37Z" fill="#FFFEFF"/>
</g>
<path d="M40.8615 96.4028L51.8308 101.708C51.8308 101.708 43.4791 99.7545 42.7715 103.002C42.6101 103.743 42.4232 104.27 42.7715 104.943C43.3635 106.088 44.713 105.59 46.007 105.59C47.2746 105.59 50.2273 105.917 52.9553 106.219L53.125 106.238C55.15 106.462 58.3017 106.885 58.3017 106.885V112.708H54.4191C54.4191 112.708 49.2675 112.536 46.007 112.061C43.4567 111.69 42.009 111.492 39.536 110.767C37.4642 110.16 36.1215 110.074 34.3593 108.826C33.1926 108 32.2325 107.591 31.771 106.238C31.2746 104.783 31.6988 103.714 32.418 102.355C33.4352 100.434 34.7243 99.8342 36.5964 98.7292C38.5715 97.5634 40.8615 96.4028 40.8615 96.4028Z" fill="#5890CB"/>
<rect width="6.97916" height="13.9583" rx="3.48958" transform="matrix(-1 0 0 1 63.3499 106.484)" fill="#283A0A"/>
<path d="M86.6139 96.4028L75.6446 101.708C75.6446 101.708 83.9963 99.7545 84.7038 103.002C84.8652 103.743 85.0521 104.27 84.7038 104.943C84.1119 106.088 82.7624 105.59 81.4684 105.59C80.2007 105.59 77.2481 105.917 74.52 106.219L74.3504 106.238C72.3254 106.462 69.1737 106.885 69.1737 106.885V112.708H73.0562C73.0562 112.708 78.2078 112.536 81.4684 112.061C84.0186 111.69 85.4663 111.492 87.9393 110.767C90.0112 110.16 91.3539 110.074 93.116 108.826C94.2827 108 95.2428 107.591 95.7044 106.238C96.2007 104.783 95.7765 103.714 95.0573 102.355C94.0402 100.434 92.751 99.8342 90.8789 98.7292C88.9038 97.5634 86.6139 96.4028 86.6139 96.4028Z" fill="#5890CB"/>
<rect x="64.1252" y="106.484" width="6.97916" height="13.9583" rx="3.48958" fill="#283A0A"/>
<path d="M31.81 32.881C31.3063 34.5888 30.4715 37.2397 30.4715 37.2397C30.4715 37.2397 32.6488 36.4217 33.9658 35.7339C35.223 35.0774 35.9484 34.7122 37.057 33.8288C38.0993 32.9983 38.6347 32.454 39.4674 31.4149C40.4829 30.1475 40.6364 29.1528 41.6121 27.8548C42.5096 26.6609 43.0892 26.0388 44.1883 25.0257C45.284 24.0156 45.92 23.4418 47.2094 22.6924C48.3867 22.0081 49.1616 21.8511 50.4125 21.3121C52.0424 20.6097 52.8377 19.819 54.5863 19.5135C56.1143 19.2465 57.0167 19.4457 58.5552 19.6368C59.6454 19.7722 60.6833 20.4413 61.201 20.3805C61.7188 20.3196 62.9144 21.8758 63.7133 21.3949C64.4868 20.9293 63.8224 19.8845 63.2533 19.2649C62.6842 18.6454 60.6386 18.4028 60.6386 18.4028C60.6386 18.4028 59.5211 18.16 58.8571 17.6731C57.9322 16.9948 57.7141 16.2722 56.7997 15.58C55.9332 14.9239 55.3979 14.5758 54.369 14.2208C52.8351 13.6917 51.8434 13.9107 50.2194 13.9462C48.7056 13.9792 47.8565 14.0997 46.3624 14.3477C44.7488 14.6154 43.7652 14.6089 42.2843 15.3028C41.0235 15.8936 40.43 16.4536 39.3738 17.3592C37.889 18.6324 37.1252 19.4678 36.036 21.0896C34.6546 23.1464 34.3106 24.5594 33.4788 26.8903C32.6622 29.1782 32.4972 30.5515 31.81 32.881Z" fill="#8EBA42"/>
<rect width="1.90414" height="6.657" rx="0.952069" transform="matrix(0.99734 -0.0789365 0.079189 0.996398 62.2722 19.5934)" fill="#8EBA42"/>
<path d="M33.661 35.9063C32.2501 36.4321 30.5349 37.367 30.5349 37.367L35.3872 32.1298C35.3872 32.1298 37.481 29.1718 38.7686 27.3736C40.1554 25.4367 41.169 24.5135 42.9604 22.9457C44.5431 21.5606 45.3864 20.6348 47.2921 19.7473C49.421 18.7559 50.8231 18.5431 53.1714 18.4833C55.5388 18.423 59.1585 19.4632 59.1585 19.4632C59.1585 19.4632 53.3402 20.2161 50.1695 22.0255C47.7673 23.3964 46.6861 24.6117 44.7519 26.591C42.1851 29.2174 41.3777 29.4083 39.0437 32.2448C37.3002 34.3636 36.4162 34.8794 33.661 35.9063Z" fill="#55751E"/>
<rect width="1.14263" height="4.03328" rx="0.571317" transform="matrix(0.995444 -0.104265 0.104507 0.993629 61.7805 19.3016)" fill="#8EBA42"/>
<path d="M106 69.2063C106 92.1202 87.3863 102.977 64.425 102.977C41.4637 102.977 22.8499 92.1202 22.8499 69.2063C22.8499 46.2925 41.4637 32.5414 64.425 32.5414C87.3863 32.5414 106 46.2925 106 69.2063Z" fill="#5890CB"/>
<path d="M54.3323 24.378C54.5959 23.5062 55.3925 22.8929 56.3034 22.8929H72.564C73.467 22.8929 74.2585 23.4956 74.5261 24.3581C75.1625 26.4098 76.4422 30.1546 77.9614 32.5415C79.2701 34.5977 81.993 37.3032 84.356 39.4679C85.7435 40.739 84.8569 43.1551 82.9752 43.1551H44.231C42.1589 43.1551 41.3686 40.2405 43.0992 39.1009C46.2334 37.0371 49.5623 34.5474 50.8892 32.5415C52.4471 30.1865 53.7084 26.4414 54.3323 24.378Z" fill="#5890CB"/>
<path d="M30.2416 74.2908C26.9616 67.7972 25.7171 60.1624 25.3723 57.594C25.3339 57.3079 24.9701 57.2335 24.842 57.4922C23.5806 60.0392 20.1144 68.4657 23.3294 78.8923C26.6021 89.5058 32.2485 93.3183 38.7994 97.2247C45.3504 101.131 52.7558 103.014 62.0042 103.014C69.7391 103.014 77.9758 102.319 82.3083 101.084C85.4741 100.182 91.2405 96.4768 94.1168 94.5468C94.554 94.2535 94.2906 93.5959 93.77 93.6741C90.5342 94.1603 84.2927 95.1165 80.7776 95.776C73.5834 97.1256 69.263 97.076 62.0605 95.776C53.9677 94.3152 49.1295 92.8877 42.4077 87.9632C36.693 83.7766 33.4917 80.7254 30.2416 74.2908Z" fill="#3C7BBC"/>
<path d="M52.568 32.3813C52.6019 33.1616 52.6325 34.3803 52.6325 34.3803C52.6325 34.3803 53.42 33.7322 53.8688 33.2601C54.2972 32.8094 54.5464 32.555 54.8809 32.0313C55.1954 31.5388 55.3402 31.237 55.538 30.6877C55.7792 30.0177 55.7014 29.5831 55.9217 28.906C56.1244 28.2832 56.2765 27.9429 56.5885 27.3666C56.8997 26.792 57.082 26.4637 57.5106 25.9699C57.902 25.5191 58.2013 25.3441 58.6438 24.9431C59.2205 24.4206 59.5613 24.2187 60.2436 23.8442C60.8399 23.5168 61.153 22.8603 61.8241 22.9706C62.2798 23.0455 62.8458 23.421 63.0521 23.3224C63.2583 23.2238 63.985 23.3734 64.0543 22.9708C64.0995 22.708 63.8975 22.3005 63.7058 22.3833C63.5141 22.4662 62.5974 22.131 62.5974 22.131C62.5974 22.131 62.135 22.273 61.7901 22.165C61.3097 22.0145 60.9577 21.8164 60.4796 21.6586C60.0265 21.5091 59.7548 21.4404 59.2772 21.4389C58.5652 21.4366 58.1847 21.668 57.5156 21.9129C56.8919 22.1411 56.5566 22.3114 55.9717 22.626C55.34 22.9658 54.9308 23.1025 54.4148 23.6004C53.9755 24.0242 53.8088 24.3408 53.4992 24.8664C53.064 25.6053 52.8658 26.0603 52.6445 26.8879C52.3637 27.9374 52.422 28.5727 52.4083 29.6581C52.3949 30.7235 52.5218 31.317 52.568 32.3813Z" fill="#8EBA42"/>
<path d="M53.7669 33.3749C53.2561 33.7931 52.6771 34.4242 52.6771 34.4242L53.9461 31.5627C53.9461 31.5627 54.3944 30.0381 54.673 29.1092C54.9731 28.1087 55.2625 27.5819 55.7831 26.6772C56.2429 25.878 56.4613 25.3742 57.1261 24.7358C57.8687 24.0226 58.4204 23.7356 59.3867 23.378C60.3608 23.0175 62.0114 22.9364 62.0114 22.9364C62.0114 22.9364 59.7033 24.0734 58.6446 25.2738C57.8425 26.1832 57.5666 26.8409 57.0453 27.9365C56.3536 29.3905 56.0456 29.5841 55.4803 31.0923C55.0581 32.2189 54.7645 32.5582 53.7669 33.3749Z" fill="#55751E"/>
<path d="M52.1055 56.8541C52.1055 56.8541 54.2263 59.3622 55.9828 59.1805C57.4889 59.0247 59.0846 56.8541 59.0846 56.8541" stroke="#0E1D01"/>
<path d="M65.676 56.8541C65.676 56.8541 67.7969 59.3622 69.5533 59.1805C71.0595 59.0247 72.6552 56.8541 72.6552 56.8541" stroke="#0E1D01"/>
<path d="M50.167 62.6702C50.167 62.6702 55.0102 66.4256 58.6971 67.3229C62.0809 68.1465 64.2728 68.3022 67.6149 67.3229C70.8803 66.3662 74.9818 62.6702 74.9818 62.6702" stroke="#0E1D01"/>
<circle cx="78.8591" cy="62.6015" r="2.32639" fill="#2E5DA4"/>
<circle cx="46.2895" cy="62.6015" r="2.32639" fill="#2E5DA4"/>
<path d="M37.1529 76.2606C38.1015 76.4612 38.7039 78.1993 38.7039 78.1993C38.7039 78.1993 37.6079 81.6238 38.3161 83.6275C38.995 85.5482 40.1847 86.2711 41.8057 87.5048C43.4223 88.7352 44.5641 89.0975 46.4585 89.8312C48.6504 90.6802 49.9389 91.1159 52.2744 91.3821C54.0798 91.588 55.1977 90.825 56.9272 91.3821C58.0892 91.7565 58.4218 92.8785 59.6413 92.9331C60.598 92.9759 61.1318 91.6903 61.9677 92.1576C62.6795 92.5555 62.8368 93.2862 62.7432 94.0963C62.6074 95.2711 61.5572 95.7216 60.4168 96.0349C59.6868 96.2355 59.2249 96.1594 58.4781 96.0349C57.1422 95.8123 56.6731 94.8743 55.3763 94.484C53.9191 94.0454 53.0063 94.3053 51.499 94.0963C48.1152 93.627 46.0793 93.5703 42.9689 92.1576C40.4835 91.0288 38.8592 90.411 37.1529 88.2803C35.7978 86.588 35.2864 85.3584 34.8266 83.2398C34.3769 81.1682 34.8266 77.8116 34.8266 77.8116C34.8266 77.8116 36.0847 76.0347 37.1529 76.2606Z" fill="#2E5DA4"/>
<path d="M88.159 76.2606C87.2104 76.4612 86.6081 78.1989 86.6081 78.1989C86.6081 78.1989 87.7041 81.6227 86.9958 83.6261C86.3169 85.5464 85.1272 86.2692 83.5062 87.5027C81.8896 88.7328 80.7477 89.095 78.8533 89.8286C76.6613 90.6775 75.3728 91.113 73.0372 91.3793C71.2319 91.5851 70.1139 90.8222 68.3844 91.3793C67.2224 91.7535 66.8898 92.8753 65.6702 92.9299C64.7135 92.9727 64.1797 91.6874 63.3438 92.1546C62.632 92.5524 62.4747 93.283 62.5683 94.0929C62.704 95.2674 63.7543 95.7179 64.8947 96.0312C65.6248 96.2317 66.0866 96.1556 66.8334 96.0312C68.1693 95.8085 68.6384 94.8708 69.9353 94.4805C71.3925 94.042 72.3054 94.3019 73.8127 94.0929C77.1965 93.6237 79.2325 93.567 82.3429 92.1546C84.8284 91.026 86.4527 90.4083 88.159 88.278C89.5142 86.5861 90.0256 85.3567 90.4855 83.2385C90.9351 81.1672 90.4855 77.8113 90.4855 77.8113C90.4855 77.8113 89.2273 76.0348 88.159 76.2606Z" fill="#2E5DA4"/>
</svg>
