<svg width="128" height="128" viewBox="0 0 128 128" fill="none" xmlns="http://www.w3.org/2000/svg">
<circle cx="64" cy="64" r="64" fill="#D4EAC0"/>
<mask id="mask0_216_1302" style="mask-type:alpha" maskUnits="userSpaceOnUse" x="0" y="0" width="128" height="128">
<circle cx="64" cy="64" r="64" fill="#D4EAC0"/>
</mask>
<g mask="url(#mask0_216_1302)">
<path d="M123.594 56.6352L142.93 73.1886C142.974 73.2266 143 73.2822 143 73.3406V140.8C143 140.91 142.91 141 142.8 141H-15.8C-15.9105 141 -16 140.91 -16 140.8V99.0887C-16 98.9533 -15.8722 98.8547 -15.7422 98.8925C-14.2736 99.3187 -6.8653 101.274 -2.23529 98.8151C2.30127 96.4055 3.7021 90.3946 8.17647 87.6297C15.2206 83.2769 19.8425 86.068 27.2353 87.6297C33.9223 89.0423 43.9861 94.4623 44.3432 94.6553C44.3545 94.6614 44.3502 94.6584 44.3602 94.6665C44.6763 94.9251 55.2484 103.501 61.2941 98.8151C65.3732 95.6538 66.1642 89.8637 69.5882 84.7535C77.1757 73.4295 91.0226 61.0276 91.2902 60.7883C91.2985 60.7808 91.2909 60.7888 91.2979 60.7801C91.5224 60.5001 101.714 47.8417 109.118 48.0015C115.026 48.129 123.471 56.5139 123.587 56.629C123.591 56.6326 123.59 56.6319 123.594 56.6352Z" fill="#B8CF92"/>
<path d="M63.1085 110.349C63.1886 108.99 64.3143 107.928 65.6758 107.928V107.928C67.1557 107.928 68.3302 109.174 68.2432 110.651L67.5449 122.497L66.8289 134.645C66.7487 136.004 65.6231 137.065 64.2615 137.065V137.065C62.7817 137.065 61.6071 135.82 61.6942 134.342L62.3924 122.497L63.1085 110.349Z" fill="#5890CB"/>
<path d="M63.6663 105.776C63.6824 105.679 63.7658 105.609 63.8636 105.609H68.5003C68.6174 105.609 68.7094 105.709 68.6997 105.825L68.3589 109.906L68.0154 114.019C68.0068 114.123 67.9201 114.202 67.8161 114.202H63.1766C63.0661 114.202 62.9766 114.113 62.9766 114.002V112.054V109.922C62.9766 109.911 62.9775 109.9 62.9793 109.889L63.6663 105.776Z" fill="#2E5DA4"/>
<path d="M76.9883 110.655C76.9882 109.294 78.0494 108.168 79.4086 108.088V108.088C80.8859 108.002 82.1318 109.176 82.1319 110.656L82.1324 122.522L82.1324 134.254C82.1324 135.674 80.9813 136.825 79.5612 136.825V136.825C78.1406 136.825 76.9888 135.674 76.9888 134.253L76.9888 122.824L76.9883 110.655Z" fill="#5890CB"/>
<path d="M76.9884 106.27C76.9884 106.165 77.0709 106.077 77.1766 106.071L81.9202 105.792C82.0351 105.785 82.132 105.877 82.132 105.992L82.132 109.905L82.132 114.016C82.132 114.121 82.0507 114.208 81.9459 114.215L77.2023 114.546C77.0867 114.554 76.9884 114.462 76.9884 114.346L76.9884 110.264L76.9884 106.27Z" fill="#2E5DA4"/>
<path d="M14.8141 64.6179C14.5167 63.0632 15.7342 61.6642 17.3196 61.6782V61.6782C18.5953 61.6894 19.6756 62.6233 19.9332 63.8706C20.7083 67.6235 22.707 75.2733 26.6722 78.9867C30.007 82.1098 36.4506 84.0573 39.2875 84.7986C40.1377 85.0208 40.803 85.6922 40.9843 86.5508V86.5508C41.2908 88.0022 40.1218 89.3201 38.6523 89.1018C34.5112 88.4866 27.0469 86.9143 23.2206 83.2615C19.7878 79.9844 18.7918 77.2514 17.0206 72.8726C16.0362 70.4392 15.2769 67.0368 14.8141 64.6179Z" fill="#2E5DA4"/>
<path d="M100.043 99.9508C99.6425 98.7531 100.21 97.4396 101.364 96.9276V96.9276C102.599 96.3798 104.04 96.951 104.535 98.2082C105.55 100.785 107.138 105.046 107.906 108.309C108.665 111.533 109.152 116.022 109.407 118.88C109.54 120.375 108.354 121.64 106.853 121.64V121.64C105.505 121.64 104.379 120.612 104.235 119.272C103.952 116.637 103.431 112.344 102.754 109.261C102.1 106.286 100.842 102.341 100.043 99.9508Z" fill="#2E5DA4"/>
<path d="M43.7295 49.0988C43.282 50.6156 42.5406 52.9701 42.5406 52.9701C42.5406 52.9701 44.4745 52.2435 45.6442 51.6326C46.7608 51.0495 47.4051 50.7252 48.3897 49.9406C49.3155 49.2029 49.791 48.7195 50.5306 47.7966C51.4326 46.671 51.5689 45.7875 52.4355 44.6346C53.2326 43.5742 53.7474 43.0217 54.7236 42.1218C55.6968 41.2247 56.2617 40.715 57.4069 40.0494C58.4525 39.4416 59.1408 39.3022 60.2518 38.8235C61.6995 38.1996 62.4058 37.4973 63.9588 37.226C65.316 36.9889 66.1175 37.1658 67.484 37.3355C68.4522 37.4558 69.3741 38.0501 69.834 37.9961C70.2938 37.942 71.3557 39.3242 72.0653 38.8971C72.7523 38.4835 72.1622 37.5555 71.6568 37.0053C71.1513 36.455 69.3344 36.2396 69.3344 36.2396C69.3344 36.2396 68.3419 36.0239 67.7521 35.5914C66.9307 34.9889 66.7369 34.3472 65.9248 33.7324C65.1551 33.1497 64.6797 32.8405 63.7659 32.5252C62.4035 32.0552 61.5227 32.2498 60.0803 32.2812C58.7357 32.3106 57.9816 32.4176 56.6546 32.6378C55.2215 32.8757 54.3478 32.8699 53.0325 33.4862C51.9127 34.0109 51.3855 34.5083 50.4475 35.3127C49.1287 36.4435 48.4503 37.1855 47.4829 38.6259C46.2559 40.4527 45.9505 41.7077 45.2116 43.7779C44.4864 45.81 44.3398 47.0298 43.7295 49.0988Z" fill="#8EBA42"/>
<rect width="1.69122" height="5.91261" rx="0.845608" transform="matrix(0.99734 -0.0789365 0.079189 0.996398 70.7854 37.2969)" fill="#8EBA42"/>
<path d="M45.3733 51.7857C44.1203 52.2527 42.5968 53.0831 42.5968 53.0831L46.9065 48.4315C46.9065 48.4315 48.7662 45.8043 49.9099 44.2071C51.1416 42.4869 52.0419 41.6669 53.633 40.2744C55.0386 39.0442 55.7876 38.2219 57.4803 37.4337C59.3711 36.5531 60.6164 36.3641 62.7021 36.311C64.8048 36.2574 68.0197 37.1813 68.0197 37.1813C68.0197 37.1813 62.852 37.8501 60.0359 39.4571C57.9023 40.6747 56.942 41.7541 55.224 43.512C52.9443 45.8448 52.2272 46.0143 50.1542 48.5337C48.6057 50.4156 47.8205 50.8736 45.3733 51.7857Z" fill="#55751E"/>
<rect width="1.01486" height="3.58228" rx="0.507432" transform="matrix(0.995444 -0.104265 0.104507 0.993629 70.3486 37.0377)" fill="#8EBA42"/>
<path d="M109.624 81.3622C109.624 101.714 93.0912 111.356 72.6974 111.356C52.3037 111.356 35.7712 101.714 35.7712 81.3622C35.7712 61.0106 52.3037 48.7972 72.6974 48.7972C93.0912 48.7972 109.624 61.0106 109.624 81.3622Z" fill="#5890CB"/>
<path d="M63.6828 41.7117C63.9494 40.8407 64.7458 40.2275 65.6567 40.2275H79.7549C80.6579 40.2275 81.4494 40.8305 81.7196 41.6921C82.3005 43.5442 83.41 46.7391 84.7199 48.7972C85.7977 50.4906 87.9554 52.6798 89.9368 54.5222C91.3148 55.8035 90.4262 58.2239 88.5445 58.2239H55.6385C53.5664 58.2239 52.7697 55.2968 54.4862 54.136C57.0414 52.4081 59.5991 50.4236 60.6749 48.7972C62.018 46.7669 63.1129 43.5733 63.6828 41.7117Z" fill="#5890CB"/>
<path d="M42.3366 85.8781C39.4647 80.1923 38.3498 73.5215 38.0253 71.148C37.9862 70.862 37.6223 70.7902 37.4957 71.0496C36.3407 73.4169 33.3793 80.8259 36.1974 89.965C39.1041 99.3917 44.1191 102.778 49.9375 106.247C55.756 109.717 62.3332 111.389 70.5475 111.389C77.4175 111.389 84.7331 110.773 88.5812 109.675C91.3228 108.894 96.2603 105.746 98.8732 104C99.3109 103.708 99.0532 103.05 98.5326 103.128C95.6017 103.569 90.2628 104.39 87.2216 104.961C80.8319 106.159 76.9946 106.115 70.5975 104.961C63.4097 103.663 59.1125 102.395 53.1423 98.0216C48.0666 94.3031 45.2233 91.5931 42.3366 85.8781Z" fill="#3C7BBC"/>
<path d="M62.1663 48.6549C62.1964 49.3479 62.2236 50.4303 62.2236 50.4303C62.2236 50.4303 62.923 49.8547 63.3216 49.4354C63.7021 49.0351 63.9234 48.8092 64.2205 48.344C64.4999 47.9066 64.6285 47.6386 64.8041 47.1507C65.0184 46.5556 64.9493 46.1696 65.145 45.5682C65.325 45.015 65.4601 44.7128 65.7372 44.2009C66.0136 43.6906 66.1755 43.399 66.5562 42.9604C66.9038 42.56 67.1696 42.4046 67.5627 42.0484C68.0749 41.5843 68.3775 41.4051 68.9836 41.0724C69.5132 40.7817 69.7913 40.1985 70.3874 40.2965C70.7921 40.363 71.2948 40.6966 71.478 40.609C71.6612 40.5214 72.3066 40.6542 72.3682 40.2967C72.4083 40.0633 72.2289 39.7013 72.0586 39.7749C71.8883 39.8485 71.0741 39.5508 71.0741 39.5508C71.0741 39.5508 70.6635 39.6769 70.3571 39.581C69.9304 39.4473 69.6178 39.2714 69.1932 39.1312C68.7908 38.9984 68.5495 38.9374 68.1253 38.9361C67.4929 38.934 67.1549 39.1396 66.5607 39.357C66.0067 39.5597 65.7089 39.711 65.1894 39.9905C64.6283 40.2923 64.2648 40.4137 63.8066 40.8559C63.4164 41.2323 63.2683 41.5135 62.9934 41.9803C62.6068 42.6366 62.4308 43.0407 62.2342 43.7757C61.9848 44.7079 62.0366 45.2721 62.0244 46.2362C62.0125 47.1825 62.1252 47.7096 62.1663 48.6549Z" fill="#8EBA42"/>
<path d="M63.2312 49.5374C62.7775 49.9088 62.2633 50.4694 62.2633 50.4694L63.3904 47.9278C63.3904 47.9278 63.7885 46.5738 64.036 45.7487C64.3025 44.8601 64.5596 44.3922 65.0219 43.5887C65.4304 42.8788 65.6243 42.4314 66.2147 41.8643C66.8743 41.2309 67.3644 40.976 68.2226 40.6584C69.0878 40.3382 70.5538 40.2661 70.5538 40.2661C70.5538 40.2661 68.5038 41.276 67.5635 42.3421C66.8511 43.1499 66.606 43.734 66.143 44.7072C65.5286 45.9986 65.2551 46.1705 64.753 47.51C64.378 48.5106 64.1173 48.812 63.2312 49.5374Z" fill="#55751E"/>
<ellipse cx="62.6177" cy="70.5168" rx="5.38236" ry="6.44548" fill="#FDFFF9"/>
<ellipse cx="80.5586" cy="70.5168" rx="5.38236" ry="6.44548" fill="#FDFFF9"/>
<ellipse cx="63.6943" cy="70.875" rx="2.87059" ry="3.22274" fill="#283A0A"/>
<ellipse cx="79.4824" cy="70.875" rx="2.87059" ry="3.22274" fill="#283A0A"/>
<path d="M80.5077 78.3947H63.0758C62.8582 78.3947 62.6656 78.5354 62.6055 78.7445C62.5185 79.0472 62.4014 79.4885 62.3517 79.827C62.23 80.6572 62.2257 81.146 62.3517 81.9755C62.8872 85.5005 66.6576 87.3468 69.1694 88.0629C71.6812 88.7791 75.2694 88.7791 76.7047 88.0629C78.1399 87.3468 81.6277 85.1126 82.087 81.9755C82.2086 81.1453 82.4182 80.5982 82.087 79.827C81.8372 79.2454 81.0687 78.6778 80.7711 78.474C80.6935 78.4208 80.6018 78.3947 80.5077 78.3947Z" fill="#141225" fill-opacity="0.5"/>
<mask id="mask1_216_1302" style="mask-type:alpha" maskUnits="userSpaceOnUse" x="71" y="83" width="11" height="9">
<path d="M74.542 84.7158C72.1624 86.2292 71.2695 89.0784 72.5475 91.0797L81.1647 85.5993C79.8866 83.598 76.9215 83.2024 74.542 84.7158Z" fill="#8EBA42"/>
</mask>
<g mask="url(#mask1_216_1302)">
<path d="M80.5077 78.3948H63.0758C62.8582 78.3948 62.6656 78.5355 62.6055 78.7445C62.5185 79.0473 62.4014 79.4885 62.3517 79.8271C62.23 80.6573 62.2257 81.146 62.3517 81.9756C62.8872 85.5006 66.6576 87.3468 69.1694 88.063C71.6812 88.7792 75.2694 88.7792 76.7047 88.063C78.1399 87.3468 81.6277 85.1127 82.087 81.9756C82.2086 81.1454 82.4182 80.5983 82.087 79.8271C81.8372 79.2455 81.0687 78.6779 80.7711 78.474C80.6935 78.4209 80.6018 78.3948 80.5077 78.3948Z" fill="#F57F6B"/>
</g>
<rect x="66.5647" y="78.3947" width="10.0471" height="2.14849" rx="0.2" fill="#FDFFF9"/>
<ellipse cx="86.6588" cy="79.1108" rx="2.15294" ry="2.14849" fill="#2E5DA4"/>
<ellipse cx="56.5177" cy="79.1108" rx="2.15294" ry="2.14849" fill="#2E5DA4"/>
<path fill-rule="evenodd" clip-rule="evenodd" d="M11.4561 76.093C10.9094 76.8095 10.0254 77.0529 9.81106 76.8894C9.59655 76.7257 9.59783 75.8088 10.1445 75.0923C10.6906 74.3765 11.5747 74.1331 11.7892 74.2967C12.0035 74.4603 12.0023 75.3772 11.4561 76.093Z" fill="#9193EF"/>
<ellipse cx="30.2315" cy="50.1242" rx="2.30353" ry="2" transform="rotate(36.915 30.2315 50.1242)" fill="#9193EF"/>
<path fill-rule="evenodd" clip-rule="evenodd" d="M11.4133 70.9445L15.1219 73.774L32.0123 51.6366L28.3037 48.8071L11.4133 70.9445Z" fill="#9193EF"/>
<path fill-rule="evenodd" clip-rule="evenodd" d="M11.207 76.3327C11.9213 76.0399 12.7145 75.6886 13.0913 75.4645C14.4486 74.6561 15.1216 73.7741 15.1216 73.7741L11.4131 70.9445C11.4131 70.9445 10.7748 71.7811 10.3029 73.4627C10.1905 73.8628 10.0718 74.6685 9.98158 75.3977L11.207 76.3327Z" fill="#5558BE"/>
</g>
</svg>
