<svg width="220" height="140" viewBox="0 0 220 140" fill="none" xmlns="http://www.w3.org/2000/svg">
<path d="M58.1235 105.712C58.0234 104.014 56.6168 102.688 54.9155 102.688V102.688C53.0663 102.688 51.5987 104.245 51.7075 106.091L52.58 120.892L53.4747 136.073C53.5748 137.771 54.9814 139.097 56.6827 139.097V139.097C58.5319 139.097 59.9995 137.54 59.8907 135.694L59.0183 120.892L58.1235 105.712Z" fill="#F194C1"/>
<path d="M57.4192 99.956C57.4031 99.8596 57.3197 99.7889 57.222 99.7889H51.3316C51.2146 99.7889 51.1225 99.889 51.1323 100.006L51.5626 105.158L51.9956 110.344C52.0043 110.448 52.0909 110.528 52.1949 110.528H58.0881C58.1985 110.528 58.2881 110.438 58.2881 110.328V107.843V105.175C58.2881 105.164 58.2872 105.153 58.2854 105.142L57.4192 99.956Z" fill="#BE55A7"/>
<path d="M40.7792 106.095C40.7792 104.394 39.4532 102.988 37.7548 102.888V102.888C35.9088 102.78 34.352 104.248 34.352 106.097L34.3513 120.924L34.3513 135.584C34.3513 137.359 35.7896 138.797 37.5642 138.797V138.797C39.3393 138.797 40.7785 137.358 40.7785 135.583L40.7785 121.302L40.7792 106.095Z" fill="#F194C1"/>
<path d="M40.7795 100.569C40.7795 100.463 40.697 100.376 40.5913 100.369L34.5641 100.015C34.4492 100.009 34.3524 100.1 34.3524 100.215L34.3524 105.158L34.3524 110.341C34.3524 110.446 34.4336 110.533 34.5384 110.541L40.5656 110.96C40.6813 110.968 40.7796 110.877 40.7796 110.761L40.7795 105.606L40.7795 100.569Z" fill="#BE55A7"/>
<rect width="15.0227" height="6.42515" rx="3.21258" transform="matrix(-1 0 0 1 66.5298 132.672)" fill="#283A0A"/>
<rect width="15.0227" height="6.42515" rx="3.21258" transform="matrix(-1 0 0 1 42.9214 132.672)" fill="#283A0A"/>
<rect width="13.5416" height="5.41678" rx="2.70839" transform="matrix(-1 0 0 1 113.563 30.902)" fill="#BE55A7"/>
<rect width="5.64238" height="34.0391" transform="matrix(-0.843495 -0.537137 -0.537118 0.843507 106.219 34.7683)" fill="#BE55A7"/>
<path d="M11.9717 92.7193C12.4717 91.2228 11.7627 89.5815 10.3203 88.9417V88.9417C8.77696 88.2572 6.97672 88.971 6.35811 90.542C5.09029 93.7616 3.106 99.0866 2.14596 103.164C1.19743 107.192 0.589359 112.802 0.271086 116.373C0.104555 118.242 1.58615 119.822 3.46194 119.822V119.822C5.14642 119.822 6.55367 118.538 6.73339 116.863C7.08675 113.57 7.7383 108.206 8.58426 104.354C9.40077 100.635 10.9735 95.7064 11.9717 92.7193Z" fill="#BE55A7"/>
<path d="M82.3377 29.1758C82.8968 31.0712 83.8233 34.0132 83.8233 34.0132C83.8233 34.0132 81.4068 33.1053 79.9452 32.342C78.55 31.6134 77.7449 31.208 76.5145 30.2276C75.3577 29.3059 74.7635 28.7018 73.8394 27.5486C72.7123 26.142 72.542 25.038 71.4591 23.5974C70.4631 22.2723 69.8198 21.5819 68.6 20.4575C67.384 19.3364 66.6781 18.6996 65.2471 17.8679C63.9405 17.1084 63.0805 16.9342 61.6922 16.3359C59.8833 15.5564 59.0007 14.6788 57.0601 14.3397C55.3643 14.0435 54.3628 14.2645 52.6553 14.4766C51.4454 14.6269 50.2935 15.3695 49.7188 15.302C49.1442 15.2345 47.8173 16.9616 46.9307 16.4279C46.0722 15.9111 46.8096 14.7515 47.4412 14.0639C48.0728 13.3763 50.343 13.1071 50.343 13.1071C50.343 13.1071 51.5833 12.8376 52.3202 12.2972C53.3467 11.5444 53.5887 10.7424 54.6035 9.97416C55.5653 9.24604 56.1593 8.85965 57.3012 8.4657C59.0035 7.8784 60.1042 8.12155 61.9065 8.16087C63.5866 8.19752 64.529 8.33126 66.1871 8.60645C67.9779 8.90366 69.0695 8.89642 70.7131 9.66652C72.1123 10.3222 72.7711 10.9437 73.9433 11.9489C75.5911 13.3619 76.4388 14.2891 77.6477 16.0891C79.1808 18.3717 79.5625 19.9399 80.4857 22.5269C81.3919 25.0662 81.5751 26.5903 82.3377 29.1758Z" fill="#8EBA42"/>
<rect width="2.11327" height="7.38825" rx="1.05664" transform="matrix(-0.997335 -0.078938 -0.0791874 0.996403 48.5303 14.4282)" fill="#8EBA42"/>
<path d="M80.2843 32.5335C81.8501 33.1171 83.7537 34.1546 83.7537 34.1546L78.3685 28.3421C78.3685 28.3421 76.0447 25.0592 74.6157 23.0634C73.0765 20.9138 71.9516 19.8892 69.9635 18.1492C68.207 16.6119 67.2711 15.5844 65.1561 14.5994C62.7934 13.4991 61.2373 13.2629 58.6311 13.1965C56.0037 13.1296 51.9865 14.284 51.9865 14.284C51.9865 14.284 58.4438 15.1197 61.9627 17.1279C64.6288 18.6493 65.8287 19.9981 67.9753 22.1948C70.824 25.1098 71.72 25.3217 74.3104 28.4698C76.2453 30.8213 77.2264 31.3937 80.2843 32.5335Z" fill="#55751E"/>
<rect width="1.26814" height="4.4763" rx="0.634069" transform="matrix(-0.995433 -0.104267 -0.104505 0.993639 49.0757 14.1042)" fill="#8EBA42"/>
<path d="M0.000412941 69.4915C0.000412941 94.9225 20.6585 106.972 46.1416 106.972C71.6246 106.972 92.2827 94.9225 92.2827 69.4915C92.2827 44.0604 71.6246 28.7988 46.1416 28.7988C20.6585 28.7988 0.000412941 44.0604 0.000412941 69.4915Z" fill="#F194C1"/>
<path d="M57.2944 19.576C57.0331 18.7035 56.2364 18.0902 55.3256 18.0902H36.9413C36.0383 18.0902 35.2465 18.6934 34.9811 19.5566C34.293 21.7942 32.8453 26.0865 31.1191 28.7988C29.5816 31.2146 26.2851 34.4379 23.5657 36.902C22.1713 38.1655 23.0554 40.5782 24.9371 40.5782H69.4156C71.4877 40.5782 72.2729 37.6741 70.5324 36.5498C66.8567 34.1755 62.7396 31.18 61.1645 28.7988C59.3938 26.1219 57.9683 21.827 57.2944 19.576Z" fill="#F194C1"/>
<path d="M84.0793 75.134C87.7637 67.8397 89.1339 59.248 89.4969 56.5018C89.5347 56.2157 89.9001 56.1465 90.0294 56.4046C91.3917 59.1241 95.3556 68.5496 91.7506 80.241C88.1185 92.0204 81.8521 96.2518 74.5816 100.587C67.3112 104.923 59.0926 107.012 48.8284 107.012C40.244 107.012 31.1027 106.242 26.2944 104.871C22.71 103.849 16.1216 99.5899 12.9997 97.4879C12.563 97.1939 12.8207 96.5336 13.3413 96.6117C16.8582 97.1392 24.0061 98.2313 27.9933 98.9793C35.9775 100.477 40.7724 100.422 48.7659 98.9793C57.7475 97.3581 63.117 95.7738 70.5771 90.3083C76.9194 85.6618 80.4723 82.2754 84.0793 75.134Z" fill="#DA87C3"/>
<path d="M59.3007 28.6207C59.2631 29.4867 59.2291 30.8392 59.2291 30.8392C59.2291 30.8392 58.3552 30.12 57.8571 29.596C57.3816 29.0958 57.1051 28.8135 56.7338 28.2322C56.3848 27.6856 56.2241 27.3507 56.0046 26.741C55.7369 25.9974 55.8232 25.515 55.5787 24.7636C55.3538 24.0724 55.185 23.6947 54.8386 23.0551C54.4933 22.4174 54.2909 22.053 53.8153 21.505C53.381 21.0046 53.0488 20.8104 52.5576 20.3654C51.9176 19.7854 51.5394 19.5614 50.7821 19.1457C50.1203 18.7824 49.7729 18.0537 49.028 18.1762C48.5224 18.2593 47.8942 18.6761 47.6652 18.5667C47.4363 18.4572 46.6298 18.6232 46.5529 18.1764C46.5027 17.8848 46.7269 17.4324 46.9397 17.5244C47.1525 17.6164 48.1699 17.2444 48.1699 17.2444C48.1699 17.2444 48.683 17.402 49.0658 17.2821C49.599 17.115 49.9897 16.8952 50.5202 16.7201C51.0231 16.5541 51.3246 16.4779 51.8547 16.4762C52.6449 16.4736 53.0672 16.7305 53.8097 17.0023C54.5019 17.2555 54.8741 17.4446 55.5232 17.7938C56.2243 18.1709 56.6785 18.3226 57.2511 18.8751C57.7387 19.3456 57.9237 19.6969 58.2672 20.2803C58.7502 21.1003 58.9702 21.6053 59.2159 22.5238C59.5275 23.6886 59.4628 24.3936 59.478 25.5983C59.4929 26.7808 59.352 27.4394 59.3007 28.6207Z" fill="#8EBA42"/>
<path d="M57.9698 29.7236C58.5368 30.1878 59.1793 30.8882 59.1793 30.8882L57.7709 27.7123C57.7709 27.7123 57.2734 26.0203 56.9642 24.9893C56.6312 23.879 56.31 23.2942 55.7323 22.2902C55.2219 21.4032 54.9796 20.8441 54.2418 20.1355C53.4176 19.344 52.8052 19.0254 51.7328 18.6286C50.6517 18.2285 48.8199 18.1384 48.8199 18.1384C48.8199 18.1384 51.3815 19.4003 52.5564 20.7326C53.4466 21.7419 53.7528 22.4718 54.3314 23.6879C55.0991 25.3015 55.4409 25.5164 56.0682 27.1903C56.5369 28.4406 56.8627 28.8172 57.9698 29.7236Z" fill="#55751E"/>
<ellipse rx="6.72553" ry="8.05415" transform="matrix(-1 0 0 1 58.7364 55.9392)" fill="#FDFFF9"/>
<ellipse rx="6.72553" ry="8.05415" transform="matrix(-1 0 0 1 36.3179 55.9392)" fill="#FDFFF9"/>
<ellipse rx="3.58695" ry="4.02708" transform="matrix(-1 0 0 1 60.7773 57.5149)" fill="#283A0A"/>
<ellipse rx="3.58695" ry="4.02708" transform="matrix(-1 0 0 1 38.792 57.5149)" fill="#283A0A"/>
<path d="M36.3456 65.7831H58.2549C58.4724 65.7831 58.6648 65.9234 58.7259 66.1322C58.836 66.5088 59.0014 67.1157 59.0685 67.5729C59.2206 68.6103 59.2259 69.221 59.0685 70.2576C58.3994 74.6623 53.6881 76.9694 50.5495 77.8643C47.4108 78.7592 42.9272 78.7592 41.1337 77.8643C39.3403 76.9694 34.9821 74.1776 34.4082 70.2576C34.2563 69.2202 33.9943 68.5366 34.4082 67.5729C34.729 66.8259 35.7346 66.0974 36.0821 65.8619C36.16 65.8091 36.2516 65.7831 36.3456 65.7831Z" fill="#141225" fill-opacity="0.5"/>
<mask id="mask0_237_1016" style="mask-type:alpha" maskUnits="userSpaceOnUse" x="35" y="72" width="13" height="10">
<path d="M43.8369 73.682C46.8103 75.5731 47.9261 79.1334 46.3291 81.6341L35.5615 74.786C37.1585 72.2852 40.8635 71.7909 43.8369 73.682Z" fill="#8EBA42"/>
</mask>
<g mask="url(#mask0_237_1016)">
<path d="M36.3456 65.7833H58.2549C58.4724 65.7833 58.6648 65.9236 58.7259 66.1325C58.836 66.509 59.0014 67.1159 59.0685 67.5731C59.2206 68.6105 59.2259 69.2213 59.0685 70.2579C58.3994 74.6626 53.6881 76.9696 50.5495 77.8646C47.4108 78.7595 42.9272 78.7595 41.1337 77.8646C39.3403 76.9696 34.9821 74.1779 34.4082 70.2579C34.2563 69.2204 33.9943 68.5368 34.4082 67.5731C34.729 66.8262 35.7346 66.0976 36.0821 65.8621C36.16 65.8094 36.2516 65.7833 36.3456 65.7833Z" fill="#F57F6B"/>
</g>
<rect width="12.5543" height="2.68472" rx="0.2" transform="matrix(-1 0 0 1 53.8042 65.7831)" fill="#FDFFF9"/>
<ellipse rx="2.69021" ry="2.68472" transform="matrix(-1 0 0 1 28.6965 66.6776)" fill="#BE55A7"/>
<ellipse rx="2.69021" ry="2.68472" transform="matrix(-1 0 0 1 66.3586 66.6776)" fill="#BE55A7"/>
<path d="M161.875 104.151C161.975 102.453 163.382 101.127 165.083 101.127V101.127C166.932 101.127 168.4 102.683 168.291 104.529L167.419 119.331L166.524 134.511C166.424 136.21 165.017 137.536 163.316 137.536V137.536C161.467 137.536 159.999 135.979 160.108 134.133L160.98 119.331L161.875 104.151Z" fill="#5890CB"/>
<path d="M162.579 98.3948C162.595 98.2984 162.679 98.2278 162.777 98.2278H168.667C168.784 98.2278 168.876 98.3278 168.866 98.4444L168.436 103.597L168.003 108.783C167.994 108.887 167.908 108.967 167.804 108.967H161.91C161.8 108.967 161.71 108.877 161.71 108.767V106.282V103.614C161.71 103.603 161.711 103.592 161.713 103.581L162.579 98.3948Z" fill="#2E5DA4"/>
<path d="M179.219 104.534C179.219 102.833 180.545 101.427 182.244 101.327V101.327C184.09 101.219 185.647 102.687 185.647 104.536L185.647 119.363L185.647 134.023C185.647 135.798 184.209 137.236 182.435 137.236V137.236C180.659 137.236 179.22 135.797 179.22 134.022L179.22 119.741L179.219 104.534Z" fill="#5890CB"/>
<path d="M179.219 99.0079C179.219 98.902 179.302 98.8145 179.407 98.8083L185.435 98.4542C185.549 98.4475 185.646 98.5389 185.646 98.6539L185.646 103.597L185.646 108.78C185.646 108.885 185.565 108.972 185.46 108.98L179.433 109.399C179.317 109.407 179.219 109.316 179.219 109.2L179.219 104.045L179.219 99.0079Z" fill="#2E5DA4"/>
<rect x="153.469" y="131.111" width="15.0231" height="6.42515" rx="3.21258" fill="#283A0A"/>
<rect x="177.077" y="131.111" width="15.0231" height="6.42515" rx="3.21258" fill="#283A0A"/>
<rect x="106.434" y="29.3408" width="13.5419" height="5.41678" rx="2.70839" fill="#2E5DA4"/>
<rect x="113.778" y="33.207" width="5.64248" height="34.0393" transform="rotate(-32.4883 113.778 33.207)" fill="#2E5DA4"/>
<path d="M208.028 91.1581C207.528 89.6616 208.237 88.0202 209.679 87.3804V87.3804C211.223 86.6959 213.023 87.4097 213.642 88.9807C214.909 92.2003 216.894 97.5254 217.854 101.602C218.802 105.631 219.41 111.241 219.729 114.812C219.895 116.68 218.414 118.26 216.538 118.26V118.26C214.853 118.26 213.446 116.976 213.266 115.301C212.913 112.008 212.261 106.645 211.415 102.792C210.599 99.0742 209.026 94.1452 208.028 91.1581Z" fill="#2E5DA4"/>
<path d="M137.66 27.6145C137.101 29.5099 136.174 32.4519 136.174 32.4519C136.174 32.4519 138.591 31.544 140.053 30.7807C141.448 30.0521 142.253 29.6468 143.483 28.6664C144.64 27.7446 145.234 27.1405 146.159 25.9873C147.286 24.5807 147.456 23.4767 148.539 22.0361C149.535 20.711 150.178 20.0206 151.398 18.8962C152.614 17.7752 153.32 17.1383 154.751 16.3066C156.058 15.5471 156.918 15.3729 158.306 14.7746C160.115 13.9951 160.998 13.1175 162.938 12.7785C164.634 12.4822 165.636 12.7033 167.343 12.9153C168.553 13.0656 169.705 13.8082 170.28 13.7407C170.854 13.6732 172.181 15.4003 173.068 14.8666C173.926 14.3498 173.189 13.1902 172.557 12.5026C171.926 11.815 169.656 11.5458 169.656 11.5458C169.656 11.5458 168.415 11.2763 167.678 10.7359C166.652 9.98308 166.41 9.18115 165.395 8.41288C164.433 7.68476 163.839 7.29837 162.697 6.90442C160.995 6.31712 159.894 6.56027 158.092 6.59959C156.412 6.63624 155.469 6.76998 153.811 7.04517C152.02 7.34238 150.929 7.33514 149.285 8.10524C147.886 8.76089 147.227 9.38246 146.055 10.3876C144.407 11.8006 143.559 12.7278 142.35 14.5278C140.817 16.8105 140.435 18.3787 139.512 20.9656C138.606 23.5049 138.423 25.0291 137.66 27.6145Z" fill="#8EBA42"/>
<rect width="2.11331" height="7.38829" rx="1.05666" transform="matrix(0.99734 -0.0789365 0.079189 0.996398 171.468 12.8669)" fill="#8EBA42"/>
<path d="M139.714 30.9721C138.149 31.5557 136.245 32.5932 136.245 32.5932L141.63 26.7807C141.63 26.7807 143.954 23.4978 145.383 21.502C146.922 19.3524 148.047 18.3278 150.035 16.5878C151.792 15.0505 152.728 14.023 154.843 13.038C157.206 11.9377 158.762 11.7015 161.368 11.6351C163.996 11.5682 168.013 12.7226 168.013 12.7226C168.013 12.7226 161.555 13.5583 158.036 15.5665C155.37 17.0879 154.17 18.4367 152.024 20.6334C149.175 23.5484 148.279 23.7603 145.688 26.9084C143.753 29.2599 142.772 29.8323 139.714 30.9721Z" fill="#55751E"/>
<rect width="1.26816" height="4.47635" rx="0.634078" transform="matrix(0.995444 -0.104265 0.104507 0.993629 170.922 12.5432)" fill="#8EBA42"/>
<path d="M220 67.9302C220 93.3612 199.341 105.41 173.858 105.41C148.374 105.41 127.715 93.3612 127.715 67.9302C127.715 42.4992 148.374 27.2375 173.858 27.2375C199.341 27.2375 220 42.4992 220 67.9302Z" fill="#5890CB"/>
<path d="M162.705 18.0146C162.966 17.142 163.763 16.5288 164.673 16.5288H183.058C183.961 16.5288 184.753 17.132 185.019 17.9951C185.707 20.2328 187.154 24.525 188.881 27.2374C190.418 29.6532 193.715 32.8765 196.434 35.3406C197.829 36.6041 196.944 39.0168 195.063 39.0168H150.583C148.511 39.0168 147.726 36.1127 149.466 34.9884C153.142 32.6141 157.259 29.6186 158.834 27.2374C160.605 24.5605 162.031 20.2656 162.705 18.0146Z" fill="#5890CB"/>
<path d="M135.919 73.5729C132.235 66.2785 130.865 57.6868 130.502 54.9406C130.464 54.6545 130.098 54.5853 129.969 54.8434C128.607 57.5629 124.643 66.9884 128.248 78.6798C131.88 90.4592 138.147 94.6906 145.417 99.0261C152.688 103.362 160.907 105.451 171.171 105.451C179.756 105.451 188.897 104.681 193.706 103.31C197.29 102.288 203.879 98.0288 207.001 95.9268C207.438 95.6328 207.18 94.9724 206.659 95.0505C203.142 95.5781 195.994 96.6702 192.007 97.4182C184.022 98.9161 179.227 98.8611 171.234 97.4182C162.252 95.7969 156.882 94.2126 149.422 88.7472C143.079 84.1007 139.527 80.7143 135.919 73.5729Z" fill="#3C7BBC"/>
<path d="M160.698 27.0597C160.736 27.9257 160.77 29.2782 160.77 29.2782C160.77 29.2782 161.644 28.5589 162.142 28.035C162.618 27.5348 162.894 27.2525 163.265 26.6711C163.614 26.1246 163.775 25.7897 163.995 25.18C164.262 24.4364 164.176 23.954 164.421 23.2026C164.645 22.5114 164.814 22.1336 165.161 21.494C165.506 20.8564 165.708 20.492 166.184 19.944C166.618 19.4436 166.951 19.2494 167.442 18.8043C168.082 18.2244 168.46 18.0004 169.217 17.5847C169.879 17.2214 170.227 16.4927 170.971 16.6151C171.477 16.6983 172.105 17.1151 172.334 17.0056C172.563 16.8962 173.37 17.0622 173.447 16.6154C173.497 16.3238 173.273 15.8714 173.06 15.9634C172.847 16.0554 171.83 15.6833 171.83 15.6833C171.83 15.6833 171.316 15.841 170.934 15.721C170.4 15.554 170.01 15.3342 169.479 15.1591C168.976 14.9931 168.675 14.9169 168.145 14.9152C167.354 14.9126 166.932 15.1695 166.19 15.4412C165.497 15.6945 165.125 15.8836 164.476 16.2327C163.775 16.6099 163.321 16.7615 162.748 17.3141C162.261 17.7845 162.075 18.1359 161.732 18.7192C161.249 19.5393 161.029 20.0443 160.783 20.9628C160.472 22.1275 160.536 22.8326 160.521 24.0373C160.506 25.2197 160.647 25.8784 160.698 27.0597Z" fill="#8EBA42"/>
<path d="M162.028 28.1624C161.461 28.6265 160.819 29.3269 160.819 29.3269L162.227 26.1511C162.227 26.1511 162.725 24.459 163.034 23.4281C163.367 22.3177 163.688 21.733 164.266 20.7289C164.776 19.8419 165.019 19.2828 165.756 18.5742C166.581 17.7827 167.193 17.4641 168.265 17.0673C169.347 16.6672 171.178 16.5772 171.178 16.5772C171.178 16.5772 168.617 17.8391 167.442 19.1713C166.552 20.1806 166.245 20.9105 165.667 22.1266C164.899 23.7403 164.557 23.9552 163.93 25.629C163.461 26.8793 163.136 27.256 162.028 28.1624Z" fill="#55751E"/>
<ellipse cx="161.262" cy="54.3779" rx="6.7257" ry="8.05415" fill="#FDFFF9"/>
<ellipse cx="183.681" cy="54.3779" rx="6.7257" ry="8.05415" fill="#FDFFF9"/>
<ellipse cx="159.221" cy="55.9536" rx="3.58704" ry="4.02708" fill="#283A0A"/>
<ellipse cx="181.207" cy="55.9536" rx="3.58704" ry="4.02708" fill="#283A0A"/>
<path d="M183.652 64.222H161.743C161.525 64.222 161.333 64.3624 161.272 64.5712C161.162 64.9477 160.996 65.5547 160.929 66.0119C160.777 67.0493 160.772 67.66 160.929 68.6966C161.598 73.1013 166.31 75.4084 169.448 76.3033C172.587 77.1982 177.071 77.1982 178.864 76.3033C180.658 75.4084 185.016 72.6166 185.59 68.6966C185.742 67.6591 186.004 66.9755 185.59 66.0119C185.269 65.2649 184.264 64.5364 183.916 64.3009C183.838 64.2481 183.747 64.222 183.652 64.222Z" fill="#141225" fill-opacity="0.5"/>
<mask id="mask1_237_1016" style="mask-type:alpha" maskUnits="userSpaceOnUse" x="172" y="70" width="13" height="11">
<path d="M176.162 72.1207C173.189 74.0118 172.073 77.5721 173.67 80.0729L184.438 73.2247C182.841 70.7239 179.136 70.2296 176.162 72.1207Z" fill="#8EBA42"/>
</mask>
<g mask="url(#mask1_237_1016)">
<path d="M183.652 64.2222H161.743C161.525 64.2222 161.333 64.3625 161.272 64.5713C161.162 64.9478 160.996 65.5548 160.929 66.012C160.777 67.0494 160.772 67.6601 160.929 68.6967C161.598 73.1014 166.31 75.4085 169.448 76.3034C172.587 77.1983 177.071 77.1983 178.864 76.3034C180.658 75.4085 185.016 72.6167 185.59 68.6967C185.742 67.6593 186.004 66.9757 185.59 66.012C185.269 65.265 184.264 64.5365 183.916 64.301C183.838 64.2482 183.747 64.2222 183.652 64.2222Z" fill="#F57F6B"/>
</g>
<rect x="166.193" y="64.222" width="12.5546" height="2.68472" rx="0.2" fill="#FDFFF9"/>
<ellipse cx="191.303" cy="65.1168" rx="2.69028" ry="2.68472" fill="#2E5DA4"/>
<ellipse cx="153.639" cy="65.1168" rx="2.69028" ry="2.68472" fill="#2E5DA4"/>
</svg>
