<svg width="90" height="26" viewBox="0 0 90 26" fill="none" xmlns="http://www.w3.org/2000/svg">
<path d="M46.4264 7.03636C46.3335 7.35276 46.1796 7.84389 46.1796 7.84389C46.1796 7.84389 46.5811 7.69233 46.824 7.56491C47.0559 7.44327 47.1897 7.37561 47.3941 7.21195C47.5863 7.05808 47.6851 6.95724 47.8387 6.76473C48.026 6.52993 48.0543 6.34564 48.2342 6.10516C48.3997 5.88395 48.5066 5.7687 48.7093 5.581C48.9114 5.39386 49.0287 5.28755 49.2665 5.14871C49.4836 5.02193 49.6265 4.99285 49.8572 4.89298C50.1578 4.76285 50.3045 4.61635 50.627 4.55976C50.9088 4.5103 51.0752 4.5472 51.3589 4.5826C51.56 4.60769 51.7514 4.73166 51.8469 4.72039C51.9424 4.70912 52.1629 4.99743 52.3102 4.90833C52.4529 4.82206 52.3303 4.6285 52.2254 4.51371C52.1204 4.39892 51.7432 4.35399 51.7432 4.35399C51.7432 4.35399 51.5371 4.30901 51.4146 4.21878C51.244 4.09312 51.2038 3.95925 51.0352 3.831C50.8754 3.70946 50.7766 3.64496 50.5869 3.57919C50.304 3.48115 50.1211 3.52174 49.8216 3.52831C49.5424 3.53443 49.3858 3.55675 49.1103 3.60269C48.8127 3.6523 48.6313 3.65109 48.3582 3.77965C48.1256 3.8891 48.0162 3.99286 47.8214 4.16064C47.5476 4.39652 47.4067 4.5513 47.2058 4.85177C46.9511 5.23283 46.8876 5.49461 46.7342 5.92645C46.5836 6.35034 46.5532 6.60477 46.4264 7.03636Z" fill="#283A0A"/>
<rect width="0.352779" height="1.23334" rx="0.17639" transform="matrix(0.996299 -0.0792152 0.0789103 0.997438 52.0446 4.57465)" fill="#283A0A"/>
<path d="M46.7679 7.59682C46.5077 7.69424 46.1914 7.86744 46.1914 7.86744L47.0863 6.89715C47.0863 6.89715 47.4724 6.34913 47.7099 6.01596C47.9656 5.65713 48.1526 5.48608 48.483 5.19562C48.7748 4.939 48.9304 4.76748 49.2818 4.60305C49.6745 4.41937 49.933 4.37995 50.3661 4.36886C50.8027 4.35769 51.4703 4.5504 51.4703 4.5504C51.4703 4.5504 50.3972 4.68991 49.8125 5.02513C49.3695 5.27912 49.1701 5.50427 48.8133 5.87097C48.34 6.35758 48.1911 6.39294 47.7606 6.91846C47.4391 7.31101 47.276 7.40656 46.7679 7.59682Z" fill="#283A0A"/>
<path d="M60.1091 13.7663C60.1091 18.0116 56.6762 20.023 52.4416 20.023C48.2069 20.023 44.774 18.0116 44.774 13.7663C44.774 9.5211 48.2069 6.97345 52.4416 6.97345C56.6762 6.97345 60.1091 9.5211 60.1091 13.7663Z" fill="#283A0A"/>
<path d="M50.133 6.64016C50.5367 5.82274 51.2952 5.18579 52.2069 5.18579H52.6928C53.5967 5.18579 54.355 5.80956 54.7471 6.62396C54.8075 6.74956 54.8715 6.86855 54.9379 6.97339C55.438 7.76284 55.0484 8.93976 54.1139 8.93976H50.6102C49.7254 8.93976 49.4585 7.71241 49.9451 6.97339C50.0109 6.87353 50.0737 6.76018 50.133 6.64016Z" fill="#283A0A"/>
<path d="M50.255 6.94378C50.2612 7.08834 50.2669 7.31412 50.2669 7.31412C50.2669 7.31412 50.4121 7.19405 50.4949 7.10658C50.5739 7.02309 50.6199 6.97596 50.6815 6.87892C50.7395 6.78768 50.7663 6.73177 50.8027 6.63C50.8472 6.50587 50.8329 6.42535 50.8735 6.29991C50.9109 6.18452 50.9389 6.12147 50.9965 6.0147C51.0539 5.90825 51.0875 5.84742 51.1665 5.75594C51.2387 5.67241 51.2939 5.63999 51.3755 5.5657C51.4819 5.46889 51.5447 5.4315 51.6706 5.3621C51.7805 5.30146 51.8383 5.17981 51.9621 5.20025C52.0461 5.21413 52.1505 5.28371 52.1885 5.26544C52.2266 5.24717 52.3606 5.27487 52.3734 5.20029C52.3817 5.15161 52.3444 5.0761 52.3091 5.09145C52.2737 5.10681 52.1047 5.0447 52.1047 5.0447C52.1047 5.0447 52.0194 5.07102 51.9558 5.051C51.8672 5.02311 51.8023 4.98642 51.7141 4.95719C51.6305 4.92949 51.5804 4.91676 51.4923 4.91648C51.361 4.91605 51.2909 4.95893 51.1675 5.00429C51.0524 5.04657 50.9906 5.07813 50.8827 5.13642C50.7662 5.19937 50.6908 5.22469 50.5956 5.31693C50.5146 5.39546 50.4838 5.45412 50.4267 5.55149C50.3465 5.68839 50.3099 5.77269 50.2691 5.92601C50.2173 6.12045 50.2281 6.23815 50.2255 6.43924C50.2231 6.63664 50.2465 6.74658 50.255 6.94378Z" fill="#283A0A"/>
<path d="M50.4759 7.1279C50.3817 7.20537 50.2749 7.3223 50.2749 7.3223L50.509 6.79215C50.509 6.79215 50.5916 6.50969 50.643 6.33759C50.6984 6.15223 50.7517 6.05462 50.8477 5.88702C50.9326 5.73895 50.9728 5.64561 51.0954 5.52733C51.2324 5.3952 51.3341 5.34202 51.5124 5.27577C51.692 5.20899 51.9964 5.19396 51.9964 5.19396C51.9964 5.19396 51.5707 5.40461 51.3755 5.627C51.2276 5.79549 51.1767 5.91734 51.0805 6.12033C50.953 6.38971 50.8962 6.42558 50.7919 6.705C50.714 6.91372 50.6599 6.97659 50.4759 7.1279Z" fill="#283A0A"/>
<path d="M0.503007 18.977C0.0171091 18.6284 -0.116761 18.2548 0.101397 17.8563L0.859993 16.4667C1.12773 15.9686 1.54422 15.9088 2.10944 16.2874C2.67467 16.6659 3.33906 16.9448 4.10262 17.1241C4.87608 17.3034 5.58014 17.3931 6.21478 17.3931C6.66101 17.3931 7.0775 17.3483 7.46423 17.2586C7.85097 17.169 8.17821 16.9946 8.44594 16.7356C8.71368 16.4766 8.84755 16.0981 8.84755 15.6C8.84755 15.3011 8.76822 15.0471 8.60956 14.8379C8.4509 14.6287 8.24762 14.4693 7.99971 14.3598C7.75181 14.2502 7.48902 14.1605 7.21137 14.0908C6.84447 14.0011 6.31394 13.8517 5.61981 13.6425C4.93558 13.4333 4.27615 13.1893 3.64151 12.9103C3.11595 12.6812 2.6003 12.3625 2.09457 11.954C1.59876 11.5356 1.23185 11.0724 0.993862 10.5644C0.765788 10.0563 0.651751 9.42874 0.651751 8.68161C0.651751 7.67548 0.939323 6.79387 1.51447 6.03678C2.09953 5.27969 2.85316 4.7567 3.77538 4.46782C4.69759 4.17893 5.84788 4.03448 7.22624 4.03448C8.15837 4.03448 9.06571 4.16897 9.94826 4.43793C10.8308 4.7069 11.4605 4.96092 11.8373 5.2C12.4323 5.57854 12.581 5.98199 12.2835 6.41034L11.3762 7.74023C11.0985 8.1387 10.6523 8.16858 10.0375 7.82989C9.57144 7.57088 9.11034 7.36169 8.65419 7.2023C8.20795 7.04291 7.70718 6.96322 7.15187 6.96322C6.77505 6.96322 6.41311 7.00307 6.06604 7.08276C5.71897 7.16245 5.42148 7.31188 5.17357 7.53103C4.93558 7.75019 4.81659 8.03908 4.81659 8.3977C4.81659 8.77625 4.92567 9.0751 5.14382 9.29425C5.3719 9.50345 5.62972 9.65785 5.91729 9.75747C6.21478 9.85709 6.4974 9.95172 6.76514 10.0414C7.32045 10.2207 7.88072 10.395 8.44594 10.5644C9.01117 10.7238 9.58632 10.918 10.1714 11.1471C10.6771 11.3464 11.168 11.6303 11.6439 11.9988C12.1199 12.3674 12.467 12.8356 12.6852 13.4034C12.9033 13.9713 13.0124 14.6188 13.0124 15.346C13.0124 16.3123 12.7248 17.2088 12.1497 18.0356C11.5745 18.8625 10.8159 19.4502 9.87389 19.7988C8.93184 20.1475 7.83609 20.3218 6.58664 20.3218C5.18845 20.3218 3.99849 20.2222 3.01678 20.023C2.03507 19.8238 1.19715 19.4751 0.503007 18.977Z" fill="#283A0A"/>
<path d="M16.6715 26C16.0765 26 15.779 25.7011 15.779 25.1034V5.22989C15.779 4.63218 16.0765 4.33333 16.6715 4.33333H19.0217C19.5175 4.33333 19.7852 4.63218 19.8249 5.22989L19.8844 6.09655H19.9439C20.4595 5.23985 21.0347 4.68199 21.6693 4.42299C22.3039 4.16398 23.0675 4.03448 23.96 4.03448C26.2903 4.03448 27.9265 4.84636 28.8685 6.47011C29.8205 8.08391 30.2965 9.98659 30.2965 12.1782C30.2965 14.3697 29.8205 16.2774 28.8685 17.9011C27.9265 19.5149 26.2903 20.3218 23.96 20.3218C23.0675 20.3218 22.3039 20.1923 21.6693 19.9333C21.0347 19.6743 20.4595 19.1165 19.9439 18.2598H19.8844C19.924 18.6582 19.9439 19.0567 19.9439 19.4552V25.1034C19.9439 25.7011 19.6464 26 19.0514 26H16.6715ZM19.9439 12.8506C19.9439 14.1954 20.2066 15.2912 20.7322 16.1379C21.2677 16.9747 21.9073 17.3931 22.651 17.3931C23.9897 17.3931 24.8623 16.9249 25.2689 15.9885C25.6854 15.0421 25.8936 13.772 25.8936 12.1782C25.8936 10.5843 25.6854 9.31916 25.2689 8.38276C24.8623 7.4364 23.9897 6.96322 22.651 6.96322C21.9073 6.96322 21.2677 7.38659 20.7322 8.23333C20.2066 9.07012 19.9439 10.1609 19.9439 11.5057V12.8506Z" fill="#283A0A"/>
<path d="M34.4018 20.023C33.8068 20.023 33.5093 19.7241 33.5093 19.1264V5.22989C33.5093 4.63218 33.8068 4.33333 34.4018 4.33333H36.752C37.3469 4.33333 37.6444 4.63218 37.6444 5.22989V6.45517H37.7039C37.9617 5.81762 38.3931 5.25479 38.998 4.76667C39.6029 4.27854 40.3169 4.03448 41.1399 4.03448C41.7051 4.03448 42.1712 4.10421 42.5381 4.24368C42.8852 4.37318 43.019 4.61226 42.9397 4.96092L42.5232 6.73908C42.434 7.13755 42.1662 7.25709 41.72 7.0977C41.4622 7.00805 41.2143 6.96322 40.9763 6.96322C40.0243 6.96322 39.236 7.53602 38.6113 8.68161C37.9865 9.8272 37.6742 11.4958 37.6742 13.6874V19.1264C37.6742 19.7241 37.3767 20.023 36.7817 20.023H34.4018Z" fill="#283A0A"/>
<path d="M63.1094 13.508V5.22989C63.1094 4.63218 63.4069 4.33333 64.0019 4.33333H66.3818C66.9768 4.33333 67.2743 4.63218 67.2743 5.22989V12.4322C67.2743 14.6038 67.423 15.9736 67.7205 16.5414C68.018 17.1092 68.6427 17.3931 69.5947 17.3931C70.6061 17.3931 71.3746 16.9897 71.9002 16.1828C72.4258 15.3659 72.6885 13.6774 72.6885 11.1172V5.22989C72.6885 4.63218 72.986 4.33333 73.581 4.33333H75.9609C76.5559 4.33333 76.8534 4.63218 76.8534 5.22989V19.1264C76.8534 19.7241 76.5559 20.023 75.9609 20.023H73.6108C73.0158 20.023 72.7183 19.7241 72.7183 19.1264V18.2598H72.6588C72.2026 19.0467 71.6225 19.5897 70.9185 19.8885C70.2144 20.1774 69.3815 20.3218 68.4196 20.3218C66.9024 20.3218 65.6381 19.8337 64.6266 18.8575C63.6152 17.8812 63.1094 16.0981 63.1094 13.508Z" fill="#283A0A"/>
<path d="M80.3786 7.32184C79.7936 7.32184 79.501 7.0728 79.501 6.57471V5.08046C79.501 4.58238 79.7936 4.33333 80.3786 4.33333H81.3901V3.81034C81.3901 3.36207 81.4942 2.95364 81.7024 2.58506L82.8478 0.567816C83.0659 0.189272 83.3238 0 83.6212 0H84.6625C85.2574 0 85.5549 0.298851 85.5549 0.896552V4.33333H87.9646C88.5496 4.33333 88.8422 4.58238 88.8422 5.08046V6.57471C88.8422 7.0728 88.5496 7.32184 87.9646 7.32184H85.5549V14.7333C85.5549 15.7494 85.6243 16.4816 85.7632 16.9299C85.9119 17.3682 86.2887 17.5874 86.8936 17.5874C87.201 17.5874 87.5481 17.5375 87.9348 17.4379C88.3216 17.3284 88.624 17.2238 88.8422 17.1241C89.1892 16.9648 89.4173 17.0793 89.5264 17.4678L89.9726 19.1713C90.0619 19.51 89.933 19.759 89.5859 19.9184C89.2586 20.0678 88.8075 20.2023 88.2323 20.3218C87.6671 20.4513 87.0969 20.5161 86.5218 20.5161C85.1037 20.5161 83.8939 20.2222 82.8924 19.6345C81.8909 19.0467 81.3901 17.8364 81.3901 16.0034V7.32184H80.3786Z" fill="#283A0A"/>
</svg>
