<svg width="320" height="192" viewBox="0 0 320 192" fill="none" xmlns="http://www.w3.org/2000/svg">
<rect width="320" height="192" fill="url(#paint0_linear_237_1016)"/>
<path d="M16.1221 123.167C6.89966 126.215 0 142.784 0 142.784V161H318.411C318.411 161 321.987 144.894 318.411 135.778C314.187 125.01 305.903 123.05 296.915 116.16C287.054 108.602 270.045 99.3455 270.045 99.3455C270.045 99.3455 257.74 57.7163 236.457 47.4997C219.299 39.2632 206.717 44.2317 188.091 47.4997C177.925 49.2833 171.529 49.1988 162.564 54.5059C149.238 62.3952 138.381 86.7344 138.381 86.7344C138.381 86.7344 126.071 83.1633 119.572 86.7344C112.087 90.8474 108.824 106.352 108.824 106.352C108.824 106.352 77.5879 89.1863 61.8012 99.3455C48.8216 107.698 44.3357 135.778 44.3357 135.778C44.3357 135.778 27.5493 119.389 16.1221 123.167Z" fill="#E7BC95"/>
<path d="M108.123 150.712C108.023 149.014 106.617 147.688 104.915 147.688V147.688C103.066 147.688 101.599 149.245 101.707 151.091L102.58 165.892L103.475 181.073C103.575 182.771 104.981 184.097 106.683 184.097V184.097C108.532 184.097 110 182.54 109.891 180.694L109.018 165.892L108.123 150.712Z" fill="#F194C1"/>
<path d="M107.419 144.956C107.403 144.86 107.32 144.789 107.222 144.789H101.332C101.215 144.789 101.123 144.889 101.132 145.006L101.563 150.158L101.996 155.344C102.004 155.448 102.091 155.528 102.195 155.528H108.088C108.199 155.528 108.288 155.438 108.288 155.328V152.843V150.175C108.288 150.164 108.287 150.153 108.285 150.142L107.419 144.956Z" fill="#BE55A7"/>
<path d="M90.7792 151.095C90.7792 149.394 89.4532 147.988 87.7548 147.888V147.888C85.9088 147.78 84.352 149.248 84.352 151.097L84.3513 165.924L84.3513 180.584C84.3513 182.359 85.7896 183.797 87.5642 183.797V183.797C89.3393 183.797 90.7785 182.358 90.7785 180.583L90.7785 166.302L90.7792 151.095Z" fill="#F194C1"/>
<path d="M90.7795 145.569C90.7795 145.463 90.697 145.376 90.5913 145.369L84.5641 145.015C84.4492 145.009 84.3524 145.1 84.3524 145.215L84.3524 150.158L84.3524 155.341C84.3524 155.446 84.4336 155.533 84.5384 155.541L90.5656 155.96C90.6813 155.968 90.7796 155.877 90.7796 155.761L90.7795 150.606L90.7795 145.569Z" fill="#BE55A7"/>
<rect width="15.0227" height="6.42515" rx="3.21258" transform="matrix(-1 0 0 1 116.53 177.672)" fill="#283A0A"/>
<rect width="15.0227" height="6.42515" rx="3.21258" transform="matrix(-1 0 0 1 92.9214 177.672)" fill="#283A0A"/>
<rect width="13.5416" height="5.41678" rx="2.70839" transform="matrix(-1 0 0 1 163.563 75.902)" fill="#BE55A7"/>
<rect width="5.64238" height="34.0391" transform="matrix(-0.843495 -0.537137 -0.537118 0.843507 156.219 79.7683)" fill="#BE55A7"/>
<path d="M61.9717 137.719C62.4717 136.223 61.7627 134.581 60.3203 133.942V133.942C58.777 133.257 56.9767 133.971 56.3581 135.542C55.0903 138.762 53.106 144.087 52.146 148.164C51.1974 152.192 50.5894 157.802 50.2711 161.373C50.1046 163.242 51.5862 164.822 53.4619 164.822V164.822C55.1464 164.822 56.5537 163.538 56.7334 161.863C57.0867 158.57 57.7383 153.206 58.5843 149.354C59.4008 145.635 60.9735 140.706 61.9717 137.719Z" fill="#BE55A7"/>
<path d="M132.338 74.1758C132.897 76.0712 133.823 79.0132 133.823 79.0132C133.823 79.0132 131.407 78.1053 129.945 77.342C128.55 76.6134 127.745 76.208 126.515 75.2276C125.358 74.3059 124.764 73.7018 123.839 72.5486C122.712 71.142 122.542 70.038 121.459 68.5974C120.463 67.2723 119.82 66.5819 118.6 65.4575C117.384 64.3364 116.678 63.6996 115.247 62.8679C113.94 62.1084 113.081 61.9342 111.692 61.3359C109.883 60.5564 109.001 59.6788 107.06 59.3397C105.364 59.0435 104.363 59.2645 102.655 59.4766C101.445 59.6269 100.293 60.3695 99.7188 60.302C99.1442 60.2345 97.8173 61.9616 96.9307 61.4279C96.0722 60.9111 96.8096 59.7515 97.4412 59.0639C98.0728 58.3763 100.343 58.1071 100.343 58.1071C100.343 58.1071 101.583 57.8376 102.32 57.2972C103.347 56.5444 103.589 55.7424 104.604 54.9742C105.565 54.246 106.159 53.8597 107.301 53.4657C109.004 52.8784 110.104 53.1215 111.907 53.1609C113.587 53.1975 114.529 53.3313 116.187 53.6064C117.978 53.9037 119.07 53.8964 120.713 54.6665C122.112 55.3222 122.771 55.9437 123.943 56.9489C125.591 58.3619 126.439 59.2891 127.648 61.0891C129.181 63.3717 129.562 64.9399 130.486 67.5269C131.392 70.0662 131.575 71.5903 132.338 74.1758Z" fill="#8EBA42"/>
<rect width="2.11327" height="7.38825" rx="1.05664" transform="matrix(-0.997335 -0.078938 -0.0791874 0.996403 98.5303 59.4282)" fill="#8EBA42"/>
<path d="M130.284 77.5335C131.85 78.1171 133.754 79.1546 133.754 79.1546L128.369 73.3421C128.369 73.3421 126.045 70.0592 124.616 68.0634C123.077 65.9138 121.952 64.8892 119.963 63.1492C118.207 61.6119 117.271 60.5844 115.156 59.5994C112.793 58.4991 111.237 58.2629 108.631 58.1965C106.004 58.1296 101.986 59.284 101.986 59.284C101.986 59.284 108.444 60.1197 111.963 62.1279C114.629 63.6493 115.829 64.9981 117.975 67.1948C120.824 70.1098 121.72 70.3217 124.31 73.4698C126.245 75.8213 127.226 76.3937 130.284 77.5335Z" fill="#55751E"/>
<rect width="1.26814" height="4.4763" rx="0.634069" transform="matrix(-0.995433 -0.104267 -0.104505 0.993639 99.0757 59.1042)" fill="#8EBA42"/>
<path d="M50.0004 114.491C50.0004 139.922 70.6585 151.972 96.1416 151.972C121.625 151.972 142.283 139.922 142.283 114.491C142.283 89.0604 121.625 73.7988 96.1416 73.7988C70.6585 73.7988 50.0004 89.0604 50.0004 114.491Z" fill="#F194C1"/>
<path d="M107.294 64.576C107.033 63.7035 106.236 63.0902 105.326 63.0902H86.9413C86.0383 63.0902 85.2465 63.6934 84.9811 64.5566C84.293 66.7942 82.8453 71.0865 81.1191 73.7988C79.5816 76.2146 76.2851 79.4379 73.5657 81.902C72.1713 83.1655 73.0554 85.5782 74.9371 85.5782H119.416C121.488 85.5782 122.273 82.6741 120.532 81.5498C116.857 79.1755 112.74 76.18 111.165 73.7988C109.394 71.1219 107.968 66.827 107.294 64.576Z" fill="#F194C1"/>
<path d="M134.079 120.134C137.764 112.84 139.134 104.248 139.497 101.502C139.535 101.216 139.9 101.147 140.029 101.405C141.392 104.124 145.356 113.55 141.751 125.241C138.119 137.02 131.852 141.252 124.582 145.587C117.311 149.923 109.093 152.012 98.8284 152.012C90.244 152.012 81.1027 151.242 76.2944 149.871C72.71 148.849 66.1216 144.59 62.9997 142.488C62.563 142.194 62.8207 141.534 63.3413 141.612C66.8582 142.139 74.0061 143.231 77.9933 143.979C85.9775 145.477 90.7724 145.422 98.7659 143.979C107.747 142.358 113.117 140.774 120.577 135.308C126.919 130.662 130.472 127.275 134.079 120.134Z" fill="#DA87C3"/>
<path d="M109.301 73.6207C109.263 74.4867 109.229 75.8392 109.229 75.8392C109.229 75.8392 108.355 75.12 107.857 74.596C107.382 74.0958 107.105 73.8135 106.734 73.2322C106.385 72.6856 106.224 72.3507 106.005 71.741C105.737 70.9974 105.823 70.515 105.579 69.7636C105.354 69.0724 105.185 68.6947 104.839 68.0551C104.493 67.4174 104.291 67.053 103.815 66.505C103.381 66.0046 103.049 65.8104 102.558 65.3654C101.918 64.7854 101.539 64.5614 100.782 64.1457C100.12 63.7824 99.7729 63.0537 99.028 63.1762C98.5224 63.2593 97.8942 63.6761 97.6652 63.5667C97.4363 63.4572 96.6298 63.6232 96.5529 63.1764C96.5027 62.8848 96.7269 62.4324 96.9397 62.5244C97.1525 62.6164 98.1699 62.2444 98.1699 62.2444C98.1699 62.2444 98.683 62.402 99.0658 62.2821C99.599 62.115 99.9897 61.8952 100.52 61.7201C101.023 61.5541 101.325 61.4779 101.855 61.4762C102.645 61.4736 103.067 61.7305 103.81 62.0023C104.502 62.2555 104.874 62.4446 105.523 62.7938C106.224 63.1709 106.678 63.3226 107.251 63.8751C107.739 64.3456 107.924 64.6969 108.267 65.2803C108.75 66.1003 108.97 66.6053 109.216 67.5238C109.527 68.6886 109.463 69.3936 109.478 70.5983C109.493 71.7808 109.352 72.4394 109.301 73.6207Z" fill="#8EBA42"/>
<path d="M107.97 74.7236C108.537 75.1878 109.179 75.8882 109.179 75.8882L107.771 72.7123C107.771 72.7123 107.273 71.0203 106.964 69.9893C106.631 68.879 106.31 68.2942 105.732 67.2902C105.222 66.4032 104.98 65.8441 104.242 65.1355C103.418 64.344 102.805 64.0254 101.733 63.6286C100.652 63.2285 98.8199 63.1384 98.8199 63.1384C98.8199 63.1384 101.381 64.4003 102.556 65.7326C103.447 66.7419 103.753 67.4718 104.331 68.6879C105.099 70.3015 105.441 70.5164 106.068 72.1903C106.537 73.4406 106.863 73.8172 107.97 74.7236Z" fill="#55751E"/>
<ellipse rx="6.72553" ry="8.05415" transform="matrix(-1 0 0 1 108.736 100.939)" fill="#FDFFF9"/>
<ellipse rx="6.72553" ry="8.05415" transform="matrix(-1 0 0 1 86.3179 100.939)" fill="#FDFFF9"/>
<ellipse rx="3.58695" ry="4.02708" transform="matrix(-1 0 0 1 110.777 102.515)" fill="#283A0A"/>
<ellipse rx="3.58695" ry="4.02708" transform="matrix(-1 0 0 1 88.792 102.515)" fill="#283A0A"/>
<path d="M86.3456 110.783H108.255C108.472 110.783 108.665 110.923 108.726 111.132C108.836 111.509 109.001 112.116 109.068 112.573C109.221 113.61 109.226 114.221 109.068 115.258C108.399 119.662 103.688 121.969 100.549 122.864C97.4108 123.759 92.9272 123.759 91.1337 122.864C89.3403 121.969 84.9821 119.178 84.4082 115.258C84.2563 114.22 83.9943 113.537 84.4082 112.573C84.729 111.826 85.7346 111.097 86.0821 110.862C86.16 110.809 86.2516 110.783 86.3456 110.783Z" fill="#141225" fill-opacity="0.5"/>
<mask id="mask0_237_1016" style="mask-type:alpha" maskUnits="userSpaceOnUse" x="85" y="117" width="13" height="10">
<path d="M93.8369 118.682C96.8103 120.573 97.9261 124.133 96.3291 126.634L85.5615 119.786C87.1585 117.285 90.8635 116.791 93.8369 118.682Z" fill="#8EBA42"/>
</mask>
<g mask="url(#mask0_237_1016)">
<path d="M86.3456 110.783H108.255C108.472 110.783 108.665 110.924 108.726 111.132C108.836 111.509 109.001 112.116 109.068 112.573C109.221 113.611 109.226 114.221 109.068 115.258C108.399 119.663 103.688 121.97 100.549 122.865C97.4108 123.759 92.9272 123.759 91.1337 122.865C89.3403 121.97 84.9821 119.178 84.4082 115.258C84.2563 114.22 83.9943 113.537 84.4082 112.573C84.729 111.826 85.7346 111.098 86.0821 110.862C86.16 110.809 86.2516 110.783 86.3456 110.783Z" fill="#F57F6B"/>
</g>
<rect width="12.5543" height="2.68472" rx="0.2" transform="matrix(-1 0 0 1 103.804 110.783)" fill="#FDFFF9"/>
<ellipse rx="2.69021" ry="2.68472" transform="matrix(-1 0 0 1 78.6965 111.678)" fill="#BE55A7"/>
<ellipse rx="2.69021" ry="2.68472" transform="matrix(-1 0 0 1 116.359 111.678)" fill="#BE55A7"/>
<path d="M211.875 149.151C211.975 147.453 213.382 146.127 215.083 146.127V146.127C216.932 146.127 218.4 147.683 218.291 149.529L217.419 164.331L216.524 179.511C216.424 181.21 215.017 182.536 213.316 182.536V182.536C211.467 182.536 209.999 180.979 210.108 179.133L210.98 164.331L211.875 149.151Z" fill="#5890CB"/>
<path d="M212.579 143.395C212.595 143.298 212.679 143.228 212.777 143.228H218.667C218.784 143.228 218.876 143.328 218.866 143.444L218.436 148.597L218.003 153.783C217.994 153.887 217.908 153.967 217.804 153.967H211.91C211.8 153.967 211.71 153.877 211.71 153.767V151.282V148.614C211.71 148.603 211.711 148.592 211.713 148.581L212.579 143.395Z" fill="#2E5DA4"/>
<path d="M229.219 149.534C229.219 147.833 230.545 146.427 232.244 146.327V146.327C234.09 146.219 235.647 147.687 235.647 149.536L235.647 164.363L235.647 179.023C235.647 180.798 234.209 182.236 232.435 182.236V182.236C230.659 182.236 229.22 180.797 229.22 179.022L229.22 164.741L229.219 149.534Z" fill="#5890CB"/>
<path d="M229.219 144.008C229.219 143.902 229.302 143.815 229.407 143.808L235.435 143.454C235.549 143.447 235.646 143.539 235.646 143.654L235.646 148.597L235.646 153.78C235.646 153.885 235.565 153.972 235.46 153.98L229.433 154.399C229.317 154.407 229.219 154.316 229.219 154.2L229.219 149.045L229.219 144.008Z" fill="#2E5DA4"/>
<rect x="203.469" y="176.111" width="15.0231" height="6.42515" rx="3.21258" fill="#283A0A"/>
<rect x="227.077" y="176.111" width="15.0231" height="6.42515" rx="3.21258" fill="#283A0A"/>
<rect x="156.434" y="74.3408" width="13.5419" height="5.41678" rx="2.70839" fill="#2E5DA4"/>
<rect x="163.778" y="78.207" width="5.64248" height="34.0393" transform="rotate(-32.4883 163.778 78.207)" fill="#2E5DA4"/>
<path d="M258.028 136.158C257.528 134.662 258.237 133.02 259.679 132.38V132.38C261.223 131.696 263.023 132.41 263.642 133.981C264.909 137.2 266.894 142.525 267.854 146.602C268.802 150.631 269.41 156.241 269.729 159.812C269.895 161.68 268.414 163.26 266.538 163.26V163.26C264.853 163.26 263.446 161.976 263.266 160.301C262.913 157.008 262.261 151.645 261.415 147.792C260.599 144.074 259.026 139.145 258.028 136.158Z" fill="#2E5DA4"/>
<path d="M187.66 72.6145C187.101 74.5099 186.174 77.4519 186.174 77.4519C186.174 77.4519 188.591 76.544 190.053 75.7807C191.448 75.0521 192.253 74.6468 193.483 73.6664C194.64 72.7446 195.234 72.1405 196.159 70.9873C197.286 69.5807 197.456 68.4767 198.539 67.0361C199.535 65.711 200.178 65.0206 201.398 63.8962C202.614 62.7752 203.32 62.1383 204.751 61.3066C206.058 60.5471 206.918 60.3729 208.306 59.7746C210.115 58.9951 210.998 58.1175 212.938 57.7785C214.634 57.4822 215.636 57.7033 217.343 57.9153C218.553 58.0656 219.705 58.8082 220.28 58.7407C220.854 58.6732 222.181 60.4003 223.068 59.8666C223.926 59.3498 223.189 58.1902 222.557 57.5026C221.926 56.815 219.656 56.5458 219.656 56.5458C219.656 56.5458 218.415 56.2763 217.678 55.7359C216.652 54.9831 216.41 54.1811 215.395 53.4129C214.433 52.6848 213.839 52.2984 212.697 51.9044C210.995 51.3171 209.894 51.5603 208.092 51.5996C206.412 51.6362 205.469 51.77 203.811 52.0452C202.02 52.3424 200.929 52.3351 199.285 53.1052C197.886 53.7609 197.227 54.3825 196.055 55.3876C194.407 56.8006 193.559 57.7278 192.35 59.5278C190.817 61.8105 190.435 63.3787 189.512 65.9656C188.606 68.5049 188.423 70.0291 187.66 72.6145Z" fill="#8EBA42"/>
<rect width="2.11331" height="7.38829" rx="1.05666" transform="matrix(0.99734 -0.0789365 0.079189 0.996398 221.468 57.8669)" fill="#8EBA42"/>
<path d="M189.714 75.9721C188.149 76.5557 186.245 77.5932 186.245 77.5932L191.63 71.7807C191.63 71.7807 193.954 68.4978 195.383 66.502C196.922 64.3524 198.047 63.3278 200.035 61.5878C201.792 60.0505 202.728 59.023 204.843 58.038C207.206 56.9377 208.762 56.7015 211.368 56.6351C213.996 56.5682 218.013 57.7226 218.013 57.7226C218.013 57.7226 211.555 58.5583 208.036 60.5665C205.37 62.0879 204.17 63.4367 202.024 65.6334C199.175 68.5484 198.279 68.7603 195.688 71.9084C193.753 74.2599 192.772 74.8323 189.714 75.9721Z" fill="#55751E"/>
<rect width="1.26816" height="4.47635" rx="0.634078" transform="matrix(0.995444 -0.104265 0.104507 0.993629 220.922 57.5432)" fill="#8EBA42"/>
<path d="M270 112.93C270 138.361 249.341 150.41 223.858 150.41C198.374 150.41 177.715 138.361 177.715 112.93C177.715 87.4992 198.374 72.2375 223.858 72.2375C249.341 72.2375 270 87.4992 270 112.93Z" fill="#5890CB"/>
<path d="M212.705 63.0146C212.966 62.142 213.763 61.5288 214.673 61.5288H233.058C233.961 61.5288 234.753 62.132 235.019 62.9951C235.707 65.2328 237.154 69.525 238.881 72.2374C240.418 74.6532 243.715 77.8765 246.434 80.3406C247.829 81.6041 246.944 84.0168 245.063 84.0168H200.583C198.511 84.0168 197.726 81.1127 199.466 79.9884C203.142 77.6141 207.259 74.6186 208.834 72.2374C210.605 69.5605 212.031 65.2656 212.705 63.0146Z" fill="#5890CB"/>
<path d="M185.919 118.573C182.235 111.279 180.865 102.687 180.502 99.9406C180.464 99.6545 180.098 99.5853 179.969 99.8434C178.607 102.563 174.643 111.988 178.248 123.68C181.88 135.459 188.147 139.691 195.417 144.026C202.688 148.362 210.907 150.451 221.171 150.451C229.756 150.451 238.897 149.681 243.706 148.31C247.29 147.288 253.879 143.029 257.001 140.927C257.438 140.633 257.18 139.972 256.659 140.051C253.142 140.578 245.994 141.67 242.007 142.418C234.022 143.916 229.227 143.861 221.234 142.418C212.252 140.797 206.882 139.213 199.422 133.747C193.079 129.101 189.527 125.714 185.919 118.573Z" fill="#3C7BBC"/>
<path d="M210.698 72.0597C210.736 72.9257 210.77 74.2782 210.77 74.2782C210.77 74.2782 211.644 73.5589 212.142 73.035C212.618 72.5348 212.894 72.2525 213.265 71.6711C213.614 71.1246 213.775 70.7897 213.995 70.18C214.262 69.4364 214.176 68.954 214.421 68.2026C214.645 67.5114 214.814 67.1336 215.161 66.494C215.506 65.8564 215.708 65.492 216.184 64.944C216.618 64.4436 216.951 64.2494 217.442 63.8043C218.082 63.2244 218.46 63.0004 219.217 62.5847C219.879 62.2214 220.227 61.4927 220.971 61.6151C221.477 61.6983 222.105 62.1151 222.334 62.0056C222.563 61.8962 223.37 62.0622 223.447 61.6154C223.497 61.3238 223.273 60.8714 223.06 60.9634C222.847 61.0554 221.83 60.6833 221.83 60.6833C221.83 60.6833 221.316 60.841 220.934 60.721C220.4 60.554 220.01 60.3342 219.479 60.1591C218.976 59.9931 218.675 59.9169 218.145 59.9152C217.354 59.9126 216.932 60.1695 216.19 60.4412C215.497 60.6945 215.125 60.8836 214.476 61.2327C213.775 61.6099 213.321 61.7615 212.748 62.3141C212.261 62.7845 212.075 63.1359 211.732 63.7192C211.249 64.5393 211.029 65.0443 210.783 65.9628C210.472 67.1275 210.536 67.8326 210.521 69.0373C210.506 70.2197 210.647 70.8784 210.698 72.0597Z" fill="#8EBA42"/>
<path d="M212.028 73.1624C211.461 73.6265 210.819 74.3269 210.819 74.3269L212.227 71.1511C212.227 71.1511 212.725 69.459 213.034 68.4281C213.367 67.3177 213.688 66.733 214.266 65.7289C214.776 64.8419 215.019 64.2828 215.756 63.5742C216.581 62.7827 217.193 62.4641 218.265 62.0673C219.347 61.6672 221.178 61.5772 221.178 61.5772C221.178 61.5772 218.617 62.8391 217.442 64.1713C216.552 65.1806 216.245 65.9105 215.667 67.1266C214.899 68.7403 214.557 68.9552 213.93 70.629C213.461 71.8793 213.136 72.256 212.028 73.1624Z" fill="#55751E"/>
<ellipse cx="211.262" cy="99.3779" rx="6.7257" ry="8.05415" fill="#FDFFF9"/>
<ellipse cx="233.681" cy="99.3779" rx="6.7257" ry="8.05415" fill="#FDFFF9"/>
<ellipse cx="209.221" cy="100.954" rx="3.58704" ry="4.02708" fill="#283A0A"/>
<ellipse cx="231.207" cy="100.954" rx="3.58704" ry="4.02708" fill="#283A0A"/>
<path d="M233.652 109.222H211.743C211.525 109.222 211.333 109.362 211.272 109.571C211.162 109.948 210.996 110.555 210.929 111.012C210.777 112.049 210.772 112.66 210.929 113.697C211.598 118.101 216.31 120.408 219.448 121.303C222.587 122.198 227.071 122.198 228.864 121.303C230.658 120.408 235.016 117.617 235.59 113.697C235.742 112.659 236.004 111.976 235.59 111.012C235.269 110.265 234.264 109.536 233.916 109.301C233.838 109.248 233.747 109.222 233.652 109.222Z" fill="#141225" fill-opacity="0.5"/>
<mask id="mask1_237_1016" style="mask-type:alpha" maskUnits="userSpaceOnUse" x="222" y="115" width="13" height="11">
<path d="M226.162 117.121C223.189 119.012 222.073 122.572 223.67 125.073L234.438 118.225C232.841 115.724 229.136 115.23 226.162 117.121Z" fill="#8EBA42"/>
</mask>
<g mask="url(#mask1_237_1016)">
<path d="M233.652 109.222H211.743C211.525 109.222 211.333 109.362 211.272 109.571C211.162 109.948 210.996 110.555 210.929 111.012C210.777 112.049 210.772 112.66 210.929 113.697C211.598 118.101 216.31 120.408 219.448 121.303C222.587 122.198 227.071 122.198 228.864 121.303C230.658 120.408 235.016 117.617 235.59 113.697C235.742 112.659 236.004 111.976 235.59 111.012C235.269 110.265 234.264 109.536 233.916 109.301C233.838 109.248 233.747 109.222 233.652 109.222Z" fill="#F57F6B"/>
</g>
<rect x="216.193" y="109.222" width="12.5546" height="2.68472" rx="0.2" fill="#FDFFF9"/>
<ellipse cx="241.303" cy="110.117" rx="2.69028" ry="2.68472" fill="#2E5DA4"/>
<ellipse cx="203.639" cy="110.117" rx="2.69028" ry="2.68472" fill="#2E5DA4"/>
<defs>
<linearGradient id="paint0_linear_237_1016" x1="160" y1="0" x2="160" y2="192" gradientUnits="userSpaceOnUse">
<stop stop-color="#F4DFCA" stop-opacity="0"/>
<stop offset="1" stop-color="#F4DFCA"/>
</linearGradient>
</defs>
</svg>
