<svg width="128" height="128" viewBox="0 0 128 128" fill="none" xmlns="http://www.w3.org/2000/svg">
<circle cx="64" cy="64" r="64" fill="#F4DFCA"/>
<mask id="mask0_216_1303" style="mask-type:alpha" maskUnits="userSpaceOnUse" x="0" y="0" width="128" height="128">
<circle cx="64" cy="64" r="64" fill="#F4DFCA"/>
</mask>
<g mask="url(#mask0_216_1303)">
<path d="M3.75111 48.9308C-0.110767 50.1449 -3 56.7444 -3 56.7444V64H130.334C130.334 64 131.832 57.585 130.334 53.9538C128.566 49.665 125.097 48.8843 121.333 46.1402C117.204 43.1297 110.081 39.4427 110.081 39.4427C110.081 39.4427 104.928 22.8616 96.0163 18.7923C88.8314 15.5116 83.5628 17.4906 75.763 18.7923C71.5063 19.5027 68.8277 19.469 65.0737 21.5829C59.4933 24.7252 54.9471 34.4196 54.9471 34.4196C54.9471 34.4196 49.792 32.9972 47.0708 34.4196C43.9365 36.0579 42.57 42.2333 42.57 42.2333C42.57 42.2333 29.4899 35.3962 22.8793 39.4427C17.444 42.7697 15.5656 53.9538 15.5656 53.9538C15.5656 53.9538 8.53625 47.4263 3.75111 48.9308Z" fill="#E7BC95"/>
<path d="M34.2295 106.711C34.1654 105.624 33.2645 104.774 32.1747 104.774V104.774C30.9903 104.774 30.0502 105.771 30.1199 106.954L30.6788 116.435L31.2519 126.158C31.316 127.246 32.2169 128.095 33.3067 128.095V128.095C34.4911 128.095 35.4312 127.098 35.3615 125.916L34.8027 116.435L34.2295 106.711Z" fill="#F194C1"/>
<path d="M33.7885 103.084C33.7724 102.988 33.689 102.917 33.5912 102.917H29.9573C29.8403 102.917 29.7482 103.017 29.758 103.134L30.0271 106.357L30.299 109.613C30.3076 109.716 30.3943 109.796 30.4983 109.796H34.135C34.2454 109.796 34.335 109.706 34.335 109.596V108.076V106.373C34.335 106.362 34.334 106.351 34.3322 106.34L33.7885 103.084Z" fill="#BE55A7"/>
<path d="M23.1204 106.957C23.1204 105.867 22.2711 104.966 21.1832 104.902V104.902C20.0008 104.833 19.0037 105.773 19.0036 106.958L19.0032 116.455L19.0032 125.845C19.0032 126.982 19.9245 127.903 21.0611 127.903V127.903C22.1981 127.903 23.12 126.981 23.12 125.844L23.12 116.697L23.1204 106.957Z" fill="#F194C1"/>
<path d="M23.1206 103.485C23.1206 103.379 23.0381 103.291 22.9324 103.285L19.2156 103.067C19.1007 103.06 19.0038 103.151 19.0038 103.267L19.0038 106.357L19.0038 109.609C19.0038 109.714 19.0851 109.801 19.1899 109.809L22.9067 110.068C23.0223 110.076 23.1206 109.984 23.1206 109.868L23.1206 106.643L23.1206 103.485Z" fill="#BE55A7"/>
<rect width="9.62244" height="4.11548" rx="2.05774" transform="matrix(-1 0 0 1 39.6138 123.98)" fill="#283A0A"/>
<rect width="9.62244" height="4.11548" rx="2.05774" transform="matrix(-1 0 0 1 24.4927 123.98)" fill="#283A0A"/>
<rect width="8.67376" height="3.46959" rx="1.73479" transform="matrix(-1 0 0 1 69.7405 58.7935)" fill="#BE55A7"/>
<rect width="3.61409" height="21.8029" transform="matrix(-0.843495 -0.537137 -0.537118 0.843507 65.0356 61.2699)" fill="#BE55A7"/>
<path d="M4.66851 98.3891C4.98881 97.4305 4.53462 96.3792 3.61077 95.9694V95.9694C2.6222 95.531 1.46911 95.9882 1.07287 96.9944C0.260795 99.0567 -1.01019 102.468 -1.62512 105.079C-2.23269 107.659 -2.62217 111.253 -2.82603 113.54C-2.9327 114.737 -1.9837 115.749 -0.782206 115.749V115.749C0.296747 115.749 1.19813 114.926 1.31325 113.854C1.53958 111.744 1.95691 108.309 2.49878 105.841C3.02177 103.46 4.02917 100.302 4.66851 98.3891Z" fill="#BE55A7"/>
<path d="M49.7397 57.6877C50.0978 58.9018 50.6912 60.7863 50.6912 60.7863C50.6912 60.7863 49.1434 60.2047 48.2072 59.7158C47.3135 59.2491 46.7978 58.9895 46.0097 58.3615C45.2688 57.7711 44.8882 57.3842 44.2963 56.6455C43.5743 55.7445 43.4652 55.0374 42.7716 54.1147C42.1336 53.2659 41.7216 52.8237 40.9403 52.1034C40.1614 51.3854 39.7092 50.9775 38.7927 50.4447C37.9557 49.9583 37.4049 49.8467 36.5157 49.4635C35.357 48.9642 34.7917 48.402 33.5487 48.1849C32.4624 47.9951 31.8209 48.1367 30.7273 48.2725C29.9523 48.3688 29.2144 48.8445 28.8464 48.8012C28.4783 48.758 27.6284 49.8643 27.0605 49.5224C26.5106 49.1914 26.9829 48.4486 27.3875 48.0082C27.792 47.5677 29.2462 47.3953 29.2462 47.3953C29.2462 47.3953 30.0406 47.2227 30.5126 46.8765C31.1701 46.3944 31.3251 45.8807 31.9752 45.3886C32.5912 44.9222 32.9717 44.6747 33.7031 44.4224C34.7935 44.0462 35.4985 44.202 36.6529 44.2271C37.7291 44.2506 38.3327 44.3363 39.3948 44.5125C40.5418 44.7029 41.241 44.6983 42.2937 45.1916C43.19 45.6115 43.612 46.0096 44.3628 46.6535C45.4182 47.5585 45.9612 48.1524 46.7356 49.3054C47.7175 50.7675 47.962 51.772 48.5534 53.429C49.1338 55.0554 49.2512 56.0317 49.7397 57.6877Z" fill="#8EBA42"/>
<rect width="1.35361" height="4.73237" rx="0.676803" transform="matrix(-0.997335 -0.078938 -0.0791874 0.996403 28.0852 48.2416)" fill="#8EBA42"/>
<path d="M48.4242 59.8384C49.4271 60.2122 50.6464 60.8768 50.6464 60.8768L47.1971 57.1537C47.1971 57.1537 45.7086 55.0509 44.7933 53.7726C43.8074 52.3957 43.0869 51.7394 41.8134 50.6249C40.6884 49.6402 40.0889 48.9821 38.7341 48.3512C37.2208 47.6464 36.2241 47.4951 34.5547 47.4526C32.8718 47.4097 30.2987 48.1491 30.2987 48.1491C30.2987 48.1491 34.4348 48.6844 36.6887 49.9707C38.3964 50.9453 39.165 51.8092 40.54 53.2162C42.3646 55.0834 42.9385 55.2191 44.5977 57.2355C45.8371 58.7417 46.4655 59.1084 48.4242 59.8384Z" fill="#55751E"/>
<rect width="0.812276" height="2.86719" rx="0.406138" transform="matrix(-0.995433 -0.104267 -0.104505 0.993639 28.4346 48.0341)" fill="#8EBA42"/>
<path d="M-2.99963 83.511C-2.99963 99.8002 10.2324 107.518 26.555 107.518C42.8776 107.518 56.1096 99.8002 56.1096 83.511C56.1096 67.2218 42.8776 57.4463 26.555 57.4463C10.2324 57.4463 -2.99963 67.2218 -2.99963 83.511Z" fill="#F194C1"/>
<path d="M33.8616 52.0705C33.5884 51.2016 32.7922 50.5872 31.8813 50.5872H21.2117C20.3087 50.5872 19.5174 51.1911 19.2413 52.0508C18.7567 53.5593 17.915 55.9024 16.9324 57.4463C16.2162 58.5716 14.9041 59.9705 13.5717 61.257C12.218 62.564 13.1118 64.9913 14.9935 64.9913H38.6424C40.7145 64.9913 41.5239 62.0393 39.8474 60.8215C38.2747 59.6791 36.8568 58.4735 36.1773 57.4463C35.1704 55.9241 34.3378 53.5852 33.8616 52.0705Z" fill="#F194C1"/>
<path d="M50.8547 87.1252C53.084 82.7115 53.9906 77.5561 54.2801 75.5163C54.3206 75.2305 54.6835 75.1575 54.8069 75.4184C55.7779 77.4717 57.9631 83.2784 55.7683 90.3964C53.4419 97.9414 49.428 100.652 44.7711 103.429C40.1142 106.206 34.85 107.544 28.2755 107.544C22.777 107.544 16.9217 107.051 13.8419 106.172C11.764 105.58 8.11018 103.289 5.95253 101.862C5.51352 101.571 5.77212 100.916 6.29262 100.995C8.70006 101.359 12.6336 101.968 14.93 102.399C20.0441 103.358 23.1154 103.323 28.2355 102.399C33.9884 101.36 37.4277 100.346 42.2061 96.8448C46.2686 93.8686 48.5442 91.6995 50.8547 87.1252Z" fill="#DA87C3"/>
<path d="M34.9835 57.3322C34.9594 57.8869 34.9376 58.7532 34.9376 58.7532C34.9376 58.7532 34.3779 58.2925 34.0588 57.9569C33.7543 57.6365 33.5771 57.4557 33.3394 57.0833C33.1158 56.7333 33.0129 56.5187 32.8723 56.1282C32.7008 55.6519 32.7561 55.3429 32.5995 54.8616C32.4554 54.4189 32.3473 54.1769 32.1254 53.7673C31.9043 53.3588 31.7746 53.1254 31.47 52.7744C31.1918 52.4539 30.979 52.3295 30.6644 52.0444C30.2544 51.673 30.0122 51.5295 29.5271 51.2632C29.1032 51.0305 28.8807 50.5638 28.4036 50.6422C28.0797 50.6955 27.6773 50.9624 27.5307 50.8923C27.384 50.8222 26.8675 50.9285 26.8182 50.6424C26.7861 50.4556 26.9297 50.1658 27.066 50.2247C27.2023 50.2836 27.8539 50.0453 27.8539 50.0453C27.8539 50.0453 28.1826 50.1463 28.4278 50.0695C28.7693 49.9625 29.0195 49.8217 29.3594 49.7096C29.6815 49.6033 29.8746 49.5544 30.2141 49.5533C30.7203 49.5517 30.9908 49.7162 31.4664 49.8903C31.9098 50.0525 32.1481 50.1736 32.5639 50.3973C33.013 50.6388 33.3039 50.736 33.6707 51.0899C33.983 51.3912 34.1015 51.6163 34.3215 51.9899C34.6309 52.5152 34.7718 52.8387 34.9292 53.427C35.1288 54.173 35.0873 54.6247 35.097 55.3963C35.1066 56.1537 35.0164 56.5756 34.9835 57.3322Z" fill="#8EBA42"/>
<path d="M34.1315 58.0387C34.4946 58.336 34.9062 58.7847 34.9062 58.7847L34.0041 56.7504C34.0041 56.7504 33.6854 55.6666 33.4874 55.0063C33.274 54.295 33.0683 53.9205 32.6983 53.2774C32.3714 52.7093 32.2161 52.3511 31.7436 51.8973C31.2156 51.3903 30.8234 51.1862 30.1365 50.932C29.4441 50.6758 28.2707 50.6181 28.2707 50.6181C28.2707 50.6181 29.9115 51.4264 30.6641 52.2797C31.2343 52.9262 31.4304 53.3937 31.801 54.1726C32.2927 55.2063 32.5116 55.3439 32.9135 56.416C33.2136 57.2169 33.4223 57.4581 34.1315 58.0387Z" fill="#55751E"/>
<ellipse rx="4.30788" ry="5.1589" transform="matrix(-1 0 0 1 34.6223 74.8304)" fill="#FDFFF9"/>
<ellipse rx="4.30788" ry="5.1589" transform="matrix(-1 0 0 1 20.2627 74.8304)" fill="#FDFFF9"/>
<ellipse rx="2.29754" ry="2.57945" transform="matrix(-1 0 0 1 35.9293 75.8397)" fill="#283A0A"/>
<ellipse rx="2.29754" ry="2.57945" transform="matrix(-1 0 0 1 21.8475 75.8397)" fill="#283A0A"/>
<path d="M20.3325 81.1357H34.1829C34.4004 81.1357 34.5932 81.2763 34.6521 81.4857C34.7187 81.7227 34.7992 82.0362 34.8353 82.2822C34.9327 82.9466 34.9362 83.3378 34.8353 84.0018C34.4067 86.8231 31.389 88.3009 29.3787 88.8741C27.3683 89.4473 24.4964 89.4473 23.3476 88.8741C22.1989 88.3009 19.4073 86.5127 19.0397 84.0018C18.9425 83.3373 18.7747 82.8994 19.0397 82.2822C19.2333 81.8314 19.8161 81.3912 20.0691 81.2156C20.1464 81.1619 20.2384 81.1357 20.3325 81.1357Z" fill="#141225" fill-opacity="0.5"/>
<mask id="mask1_216_1303" style="mask-type:alpha" maskUnits="userSpaceOnUse" x="19" y="85" width="9" height="7">
<path d="M25.0786 86.1952C26.9832 87.4065 27.6979 89.687 26.6749 91.2888L19.778 86.9023C20.8009 85.3005 23.1741 84.9839 25.0786 86.1952Z" fill="#8EBA42"/>
</mask>
<g mask="url(#mask1_216_1303)">
<path d="M20.3325 81.1359H34.1829C34.4004 81.1359 34.5932 81.2764 34.6521 81.4858C34.7187 81.7228 34.7992 82.0364 34.8353 82.2823C34.9327 82.9468 34.9362 83.3379 34.8353 84.0019C34.4067 86.8233 31.389 88.301 29.3787 88.8742C27.3683 89.4474 24.4964 89.4474 23.3476 88.8742C22.1989 88.301 19.4073 86.5128 19.0397 84.0019C18.9425 83.3374 18.7747 82.8995 19.0397 82.2823C19.2333 81.8316 19.8161 81.3913 20.0691 81.2157C20.1464 81.1621 20.2384 81.1359 20.3325 81.1359Z" fill="#F57F6B"/>
</g>
<rect width="8.04138" height="1.71963" rx="0.2" transform="matrix(-1 0 0 1 31.4631 81.1357)" fill="#FDFFF9"/>
<ellipse rx="1.72315" ry="1.71963" transform="matrix(-1 0 0 1 15.3806 81.7088)" fill="#BE55A7"/>
<ellipse rx="1.72315" ry="1.71963" transform="matrix(-1 0 0 1 39.5046 81.7088)" fill="#BE55A7"/>
<path d="M100.685 105.712C100.749 104.624 101.65 103.774 102.74 103.774V103.774C103.925 103.774 104.865 104.771 104.795 105.954L104.236 115.435L103.663 125.158C103.599 126.246 102.698 127.095 101.608 127.095V127.095C100.424 127.095 99.4836 126.098 99.5533 124.916L100.112 115.435L100.685 105.712Z" fill="#5890CB"/>
<path d="M101.126 102.085C101.142 101.988 101.226 101.917 101.323 101.917H104.957C105.074 101.917 105.166 102.018 105.157 102.134L104.888 105.357L104.616 108.613C104.607 108.716 104.52 108.796 104.416 108.796H100.78C100.669 108.796 100.58 108.706 100.58 108.596V107.076V105.373C100.58 105.362 100.581 105.351 100.582 105.34L101.126 102.085Z" fill="#2E5DA4"/>
<path d="M111.795 105.957C111.795 104.867 112.644 103.967 113.732 103.903V103.903C114.914 103.833 115.912 104.773 115.912 105.958L115.912 115.455L115.912 124.845C115.912 125.982 114.991 126.903 113.854 126.903V126.903C112.717 126.903 111.795 125.981 111.795 124.844L111.795 115.697L111.795 105.957Z" fill="#5890CB"/>
<path d="M111.794 102.485C111.794 102.379 111.877 102.292 111.983 102.285L115.7 102.067C115.814 102.06 115.911 102.152 115.911 102.267L115.911 105.357L115.911 108.609C115.911 108.714 115.83 108.802 115.725 108.809L112.008 109.068C111.893 109.076 111.794 108.984 111.794 108.868L111.794 105.643L111.794 102.485Z" fill="#2E5DA4"/>
<rect x="95.3008" y="122.98" width="9.62267" height="4.11548" rx="2.05774" fill="#283A0A"/>
<rect x="110.422" y="122.98" width="9.62267" height="4.11548" rx="2.05774" fill="#283A0A"/>
<rect x="65.1733" y="57.7936" width="8.67397" height="3.46959" rx="1.73479" fill="#2E5DA4"/>
<rect x="69.8782" y="60.27" width="3.61415" height="21.8031" transform="rotate(-32.4883 69.8782 60.27)" fill="#2E5DA4"/>
<path d="M85.1745 56.6877C84.8164 57.9018 84.223 59.7863 84.223 59.7863C84.223 59.7863 85.7709 59.2047 86.7071 58.7158C87.6008 58.2491 88.1165 57.9895 88.9046 57.3615C89.6455 56.7711 90.0261 56.3842 90.6181 55.6455C91.34 54.7445 91.4491 54.0374 92.1428 53.1147C92.7808 52.2659 93.1928 51.8237 93.9741 51.1034C94.7531 50.3854 95.2052 49.9775 96.1218 49.4447C96.9588 48.9583 97.5096 48.8467 98.3989 48.4635C99.5576 47.9642 100.123 47.402 101.366 47.1849C102.452 46.9951 103.094 47.1367 104.187 47.2725C104.962 47.3688 105.7 47.8445 106.068 47.8012C106.436 47.758 107.286 48.8643 107.854 48.5224C108.404 48.1914 107.932 47.4486 107.527 47.0082C107.123 46.5677 105.668 46.3953 105.668 46.3953C105.668 46.3953 104.874 46.2227 104.402 45.8765C103.745 45.3944 103.59 44.8807 102.939 44.3886C102.323 43.9222 101.943 43.6747 101.211 43.4224C100.121 43.0462 99.4161 43.202 98.2616 43.2271C97.1854 43.2506 96.5818 43.3363 95.5197 43.5125C94.3726 43.7029 93.6734 43.6983 92.6206 44.1916C91.7243 44.6115 91.3024 45.0096 90.5516 45.6535C89.4961 46.5585 88.9531 47.1524 88.1787 48.3054C87.1967 49.7675 86.9522 50.772 86.3608 52.429C85.7804 54.0554 85.663 55.0317 85.1745 56.6877Z" fill="#8EBA42"/>
<rect width="1.35363" height="4.73239" rx="0.676816" transform="matrix(0.99734 -0.0789365 0.079189 0.996398 106.83 47.2416)" fill="#8EBA42"/>
<path d="M86.49 58.8384C85.4871 59.2122 84.2677 59.8768 84.2677 59.8768L87.7171 56.1537C87.7171 56.1537 89.2056 54.0509 90.121 52.7726C91.1069 51.3957 91.8274 50.7394 93.1009 49.6249C94.226 48.6402 94.8255 47.9821 96.1803 47.3512C97.6937 46.6464 98.6904 46.4951 100.36 46.4526C102.043 46.4097 104.616 47.1491 104.616 47.1491C104.616 47.1491 100.48 47.6844 98.2258 48.9707C96.518 49.9453 95.7494 50.8092 94.3744 52.2162C92.5497 54.0834 91.9758 54.2191 90.3165 56.2355C89.0771 57.7417 88.4487 58.1084 86.49 58.8384Z" fill="#55751E"/>
<rect width="0.812287" height="2.86722" rx="0.406143" transform="matrix(0.995444 -0.104265 0.104507 0.993629 106.48 47.0342)" fill="#8EBA42"/>
<path d="M137.915 82.5111C137.915 98.8004 124.683 106.518 108.36 106.518C92.0368 106.518 78.8044 98.8004 78.8044 82.5111C78.8044 66.2219 92.0368 56.4464 108.36 56.4464C124.683 56.4464 137.915 66.2219 137.915 82.5111Z" fill="#5890CB"/>
<path d="M101.053 51.0705C101.327 50.2016 102.123 49.5872 103.034 49.5872H113.704C114.607 49.5872 115.398 50.1911 115.674 51.0508C116.159 52.5593 117 54.9024 117.983 56.4463C118.699 57.5716 120.011 58.9705 121.344 60.257C122.697 61.5639 121.804 63.9913 119.922 63.9913H96.2723C94.2002 63.9913 93.3908 61.0393 95.0673 59.8215C96.6401 58.6791 98.058 57.4735 98.7375 56.4463C99.7444 54.9241 100.577 52.5852 101.053 51.0705Z" fill="#5890CB"/>
<path d="M84.0595 86.1254C81.8301 81.7116 80.9235 76.5562 80.634 74.5164C80.5935 74.2306 80.2307 74.1576 80.1073 74.4185C79.1362 76.4717 76.9509 82.2785 79.1458 89.3965C81.4723 96.9415 85.4862 99.6518 90.1432 102.429C94.8003 105.206 100.065 106.544 106.639 106.544C112.138 106.544 117.993 106.051 121.073 105.172C123.151 104.58 126.805 102.289 128.963 100.862C129.402 100.571 129.143 99.9162 128.623 99.995C126.215 100.359 122.282 100.968 119.985 101.399C114.871 102.358 111.799 102.323 106.679 101.399C100.926 100.36 97.4868 99.3457 92.7083 95.8449C88.6458 92.8687 86.37 90.6996 84.0595 86.1254Z" fill="#3C7BBC"/>
<path d="M99.9311 56.3324C99.9552 56.8871 99.977 57.7535 99.977 57.7535C99.977 57.7535 100.537 57.2928 100.856 56.9571C101.16 56.6368 101.338 56.4559 101.575 56.0836C101.799 55.7335 101.902 55.519 102.042 55.1285C102.214 54.6522 102.159 54.3432 102.315 53.8619C102.459 53.4191 102.567 53.1772 102.789 52.7675C103.01 52.3591 103.14 52.1257 103.445 51.7747C103.723 51.4541 103.936 51.3298 104.25 51.0447C104.66 50.6732 104.903 50.5297 105.388 50.2635C105.812 50.0308 106.034 49.564 106.511 49.6425C106.835 49.6957 107.238 49.9627 107.384 49.8926C107.531 49.8225 108.047 49.9288 108.097 49.6426C108.129 49.4558 107.985 49.1661 107.849 49.225C107.713 49.2839 107.061 49.0456 107.061 49.0456C107.061 49.0456 106.732 49.1466 106.487 49.0697C106.145 48.9628 105.895 48.822 105.555 48.7098C105.233 48.6035 105.04 48.5547 104.701 48.5536C104.194 48.5519 103.924 48.7165 103.448 48.8905C103.005 49.0528 102.767 49.1738 102.351 49.3975C101.902 49.6391 101.611 49.7362 101.244 50.0902C100.932 50.3915 100.813 50.6165 100.593 50.9902C100.284 51.5154 100.143 51.8389 99.9855 52.4272C99.7859 53.1733 99.8273 53.6249 99.8176 54.3965C99.8081 55.1539 99.8982 55.5758 99.9311 56.3324Z" fill="#8EBA42"/>
<path d="M100.783 57.0387C100.42 57.336 100.009 57.7847 100.009 57.7847L100.911 55.7504C100.911 55.7504 101.229 54.6666 101.428 54.0063C101.641 53.295 101.847 52.9205 102.217 52.2774C102.544 51.7093 102.699 51.3511 103.171 50.8973C103.699 50.3903 104.092 50.1862 104.778 49.932C105.471 49.6758 106.644 49.6181 106.644 49.6181C106.644 49.6181 105.004 50.4264 104.251 51.2797C103.681 51.9262 103.485 52.3937 103.114 53.1726C102.622 54.2063 102.403 54.3439 102.001 55.416C101.701 56.2169 101.493 56.4581 100.783 57.0387Z" fill="#55751E"/>
<ellipse cx="100.293" cy="73.8304" rx="4.30799" ry="5.1589" fill="#FDFFF9"/>
<ellipse cx="114.652" cy="73.8304" rx="4.30799" ry="5.1589" fill="#FDFFF9"/>
<ellipse cx="98.9856" cy="74.8397" rx="2.29759" ry="2.57945" fill="#283A0A"/>
<ellipse cx="113.068" cy="74.8397" rx="2.29759" ry="2.57945" fill="#283A0A"/>
<path d="M114.583 80.1359H100.732C100.514 80.1359 100.322 80.2764 100.263 80.4858C100.196 80.7228 100.116 81.0364 100.079 81.2823C99.9821 81.9468 99.9786 82.3379 100.079 83.0019C100.508 85.8233 103.526 87.301 105.536 87.8742C107.547 88.4474 110.419 88.4474 111.567 87.8742C112.716 87.301 115.508 85.5128 115.875 83.0019C115.973 82.3374 116.141 81.8995 115.875 81.2823C115.682 80.8316 115.099 80.3913 114.846 80.2157C114.769 80.1621 114.677 80.1359 114.583 80.1359Z" fill="#141225" fill-opacity="0.5"/>
<mask id="mask2_216_1303" style="mask-type:alpha" maskUnits="userSpaceOnUse" x="107" y="84" width="9" height="7">
<path d="M109.836 85.1952C107.932 86.4065 107.217 88.687 108.24 90.2888L115.137 85.9023C114.114 84.3005 111.741 83.9839 109.836 85.1952Z" fill="#8EBA42"/>
</mask>
<g mask="url(#mask2_216_1303)">
<path d="M114.583 80.136H100.732C100.514 80.136 100.322 80.2765 100.263 80.4859C100.196 80.7229 100.116 81.0365 100.079 81.2824C99.9821 81.9469 99.9786 82.3381 100.079 83.002C100.508 85.8234 103.526 87.3011 105.536 87.8743C107.547 88.4475 110.419 88.4475 111.567 87.8743C112.716 87.3011 115.508 85.5129 115.875 83.002C115.973 82.3375 116.141 81.8997 115.875 81.2824C115.682 80.8317 115.099 80.3915 114.846 80.2158C114.769 80.1622 114.677 80.136 114.583 80.136Z" fill="#F57F6B"/>
</g>
<rect x="103.452" y="80.1359" width="8.04157" height="1.71963" rx="0.2" fill="#FDFFF9"/>
<ellipse cx="119.535" cy="80.709" rx="1.72319" ry="1.71963" fill="#2E5DA4"/>
<ellipse cx="95.41" cy="80.709" rx="1.72319" ry="1.71963" fill="#2E5DA4"/>
</g>
</svg>
