<svg width="128" height="128" viewBox="0 0 128 128" fill="none" xmlns="http://www.w3.org/2000/svg">
<circle cx="64" cy="64" r="64" fill="#DED8F0"/>
<rect x="31.8394" y="30.4587" width="64.9676" height="82.6059" rx="10" transform="rotate(-18.3957 31.8394 30.4587)" fill="#EFB076"/>
<rect x="42.126" y="32.7152" width="47.4125" height="29.3757" rx="10" transform="rotate(-18.3957 42.126 32.7152)" fill="#E08F4B"/>
<path d="M54.1986 43.9425C54.1549 44.8531 54.0607 46.273 54.0607 46.273C54.0607 46.273 55.0431 45.6033 55.614 45.1022C56.159 44.6238 56.4751 44.3546 56.9189 43.7813C57.3361 43.2423 57.5362 42.9068 57.8241 42.2893C58.1753 41.5361 58.1313 41.0226 58.4589 40.259C58.7603 39.5566 58.973 39.1771 59.3963 38.5404C59.8184 37.9056 60.0649 37.5433 60.6146 37.0148C61.1166 36.5323 61.4824 36.3607 62.0384 35.9416C62.763 35.3955 63.0623 34.9061 63.8938 34.5431C64.6203 34.226 65.0925 34.2163 65.8797 34.1258C66.4374 34.0617 67.0656 34.1484 67.3154 34.0557C67.5651 33.9629 68.4014 34.6843 68.5246 34.2237C68.6051 33.9231 68.4141 33.4278 68.1829 33.5038C67.9516 33.5798 66.8289 33.4103 66.8289 33.4103C66.8289 33.4103 66.1809 33.2744 65.7923 33.1121C65.251 32.8862 65.0553 32.5529 64.5176 32.3187C64.0079 32.0968 63.7 31.9881 63.1462 31.9355C62.3205 31.8572 61.8545 32.0858 61.0523 32.2994C60.3045 32.4984 59.8974 32.6608 59.1854 32.9644C58.4164 33.2923 57.9272 33.4077 57.2756 33.9316C56.7209 34.3776 56.4938 34.7279 56.0788 35.306C55.4953 36.1187 55.217 36.6265 54.8721 37.565C54.4346 38.7551 54.4346 39.4997 54.3032 40.76C54.1743 41.9971 54.2583 42.7004 54.1986 43.9425Z" fill="#8EBA42"/>
<rect x="67.7205" y="33.6558" width="0.973562" height="3.40746" rx="0.486781" transform="rotate(-18.1864 67.7205 33.6558)" fill="#8EBA42"/>
<path d="M96.5218 57.0651C96.1125 56.658 96.0746 56.0048 96.4411 55.5587C96.8332 55.0813 97.5391 55.0189 97.9995 55.4309C98.943 56.2752 100.467 57.6902 101.45 58.8654C102.422 60.0266 103.543 61.761 104.234 62.8762C104.595 63.4597 104.37 64.2197 103.757 64.5279C103.206 64.8046 102.535 64.616 102.201 64.098C101.545 63.0794 100.45 61.4328 99.5408 60.3123C98.663 59.2308 97.339 57.8777 96.5218 57.0651Z" fill="#2E5DA4"/>
<path d="M59.9359 69.0594C60.0452 68.4925 59.709 67.9313 59.1551 67.7687C58.5623 67.5947 57.9437 67.9403 57.7949 68.5399C57.4901 69.7688 57.0267 71.7958 56.8747 73.3209C56.7246 74.8278 56.7741 76.8921 56.8306 78.2026C56.8601 78.8883 57.4736 79.3901 58.154 79.2998C58.7649 79.2187 59.2136 78.6852 59.1981 78.0691C59.1678 76.8576 59.1459 74.8806 59.2673 73.4426C59.3844 72.0546 59.7176 70.1909 59.9359 69.0594Z" fill="#2E5DA4"/>
<path d="M75.269 75.9541C75.1098 75.3523 75.4474 74.7306 76.0388 74.5363C76.6816 74.3251 77.3696 74.6987 77.5426 75.3529L78.9298 80.598L80.3523 85.9772C80.5115 86.5791 80.174 87.2007 79.5825 87.395C78.9397 87.6062 78.2517 87.2327 78.0787 86.5785L76.6916 81.3333L75.269 75.9541Z" fill="#5890CB"/>
<path d="M81.3424 74.1066C81.1481 73.5152 81.4484 72.8749 82.0275 72.6462C82.6568 72.3977 83.3657 72.7302 83.5769 73.373L85.2704 78.5274L86.9447 83.6237C87.1473 84.2405 86.8116 84.9048 86.1947 85.1075C85.5776 85.3102 84.9129 84.9742 84.7102 84.3572L83.0792 79.3927L81.3424 74.1066Z" fill="#5890CB"/>
<rect x="75.0625" y="87.8273" width="5.49705" height="2.35101" rx="1.1755" transform="rotate(-34.9598 75.0625 87.8273)" fill="#283A0A"/>
<rect x="84.647" y="83.0089" width="5.49705" height="2.35101" rx="1.1755" transform="rotate(10.0374 84.647 83.0089)" fill="#283A0A"/>
<path d="M80.9205 72.8419C80.8874 72.7413 80.9385 72.6324 81.037 72.5935L82.8555 71.8754C82.9626 71.8331 83.0831 71.8897 83.1191 71.999L83.6328 73.5628L84.1943 75.2719C84.228 75.3746 84.1741 75.4855 84.0725 75.5223L82.2368 76.188C82.1307 76.2265 82.0137 76.1696 81.9785 76.0624L81.4584 74.4792L80.9205 72.8419Z" fill="#2E5DA4"/>
<path d="M74.964 74.6584C74.9394 74.5554 74.9994 74.4511 75.1007 74.4206L76.9726 73.8559C77.0828 73.8227 77.1982 73.8891 77.225 74.001L77.6071 75.6021L78.134 77.3183C78.1678 77.4287 78.1015 77.5447 77.9892 77.5715L75.9737 78.0525C75.8659 78.0782 75.7578 78.0115 75.7325 77.9037L75.3641 76.3348L74.964 74.6584Z" fill="#2E5DA4"/>
<path d="M96.7285 51.0403C100.391 62.1884 93.0888 70.4393 81.9406 74.1017C70.7925 77.7641 60.02 75.4511 56.3576 64.303C52.6952 53.1549 59.5346 43.4958 70.6828 39.8334C81.8309 36.171 93.0661 39.8922 96.7285 51.0403Z" fill="#5890CB"/>
<path d="M64.4862 38.2272C64.4877 37.316 65.0508 36.4824 65.9165 36.1979L72.3805 34.0744C73.2388 33.7924 74.1789 34.1214 74.7193 34.8454C75.3938 35.7491 76.3567 36.9366 77.2547 37.674C77.7042 38.0432 78.3256 38.4319 79.0122 38.8103C80.6594 39.7181 80.5693 42.3061 78.7826 42.8931L66.2051 47.0251C64.2374 47.6715 62.5506 45.1026 63.5491 43.288C63.8088 42.8161 64.0063 42.3752 64.1107 41.9921C64.415 40.8754 64.4845 39.3551 64.4862 38.2272Z" fill="#5890CB"/>
<path d="M60.7593 65.5975C58.3764 63.2094 56.6548 60.0992 55.9223 58.6469C55.7922 58.3891 55.4285 58.4385 55.3992 58.7258C55.2159 60.5245 55.1884 64.7703 58.1388 68.9387C61.4241 73.5804 64.7749 74.5347 68.5798 75.3903C72.3848 76.246 76.2812 75.9809 80.7714 74.5057C84.5269 73.272 88.4149 71.6203 90.321 70.3283C91.4797 69.5428 93.2025 67.5266 94.3753 66.0663C94.7048 65.656 94.2588 65.118 93.7894 65.3559C92.226 66.1484 90.0461 67.265 88.7294 67.9899C85.4522 69.794 83.3467 70.459 79.6419 70.9753C75.4793 71.5554 72.9021 71.6326 68.8514 70.3089C65.4077 69.1835 63.3657 68.2096 60.7593 65.5975Z" fill="#3C7BBC"/>
<path d="M69.2805 55.4698C69.2805 55.4698 70.7703 56.3862 71.6286 56.0024C72.3647 55.6732 72.8112 54.3099 72.8112 54.3099" stroke="#0E1D01"/>
<path d="M76.1458 53.2144C76.1458 53.2144 77.6355 54.1307 78.4939 53.7469C79.2299 53.4177 79.6764 52.0545 79.6764 52.0545" stroke="#0E1D01"/>
<path d="M69.2664 58.7343C69.2664 58.7343 72.3406 59.8292 74.3549 59.6704C76.2036 59.5246 77.3383 59.2391 78.8663 58.1883C80.3592 57.1616 81.8199 54.6102 81.8199 54.6102" stroke="#0E1D01"/>
<circle cx="83.7701" cy="53.9312" r="1.23877" transform="rotate(-18.1864 83.7701 53.9312)" fill="#2E5DA4"/>
<circle cx="67.2935" cy="59.3438" r="1.23877" transform="rotate(-18.1864 67.2935 59.3438)" fill="#2E5DA4"/>
<path d="M55.4834 45.2247C54.8463 45.6565 54.1075 46.3287 54.1075 46.3287L55.8842 43.1372C55.8842 43.1372 56.5664 41.4126 56.9885 40.3624C57.4432 39.2313 57.8349 38.6496 58.5351 37.6534C59.1536 36.7732 59.4605 36.2108 60.2996 35.5393C61.237 34.7891 61.9076 34.5141 63.0666 34.2011C64.2349 33.8855 66.1582 33.9666 66.1582 33.9666C66.1582 33.9666 63.3598 35.0431 62.0039 36.3259C60.9766 37.2979 60.5866 38.033 59.8653 39.2513C58.908 40.8679 58.5302 41.0603 57.7139 42.7534C57.1042 44.0181 56.7275 44.3813 55.4834 45.2247Z" fill="#55751E"/>
<mask id="mask0_216_1304" style="mask-type:alpha" maskUnits="userSpaceOnUse" x="0" y="0" width="128" height="128">
<circle cx="64" cy="64" r="64" fill="#DED8F0"/>
</mask>
<g mask="url(#mask0_216_1304)">
<circle cx="23.3157" cy="48.8949" r="9.88026" transform="rotate(-27.3582 23.3157 48.8949)" fill="#FFFEFF"/>
<circle cx="26.3679" cy="47.3156" r="9.88026" transform="rotate(-27.3582 26.3679 47.3156)" fill="#DED8F0"/>
</g>
</svg>
