<svg width="91" height="109" viewBox="0 0 91 109" fill="none" xmlns="http://www.w3.org/2000/svg">
<path d="M77.6508 59.8197C76.6997 59.3315 76.294 58.1867 76.7253 57.2086V57.2086C77.1941 56.1455 78.4612 55.6964 79.4948 56.2269L87.7831 60.4811L96.2832 64.8439C97.2342 65.3321 97.64 66.4769 97.2087 67.455V67.455C96.7399 68.5181 95.4728 68.9672 94.4391 68.4367L86.1508 64.1825L77.6508 59.8197Z" fill="#5890CB"/>
<path d="M74.5726 57.9903C74.4908 57.9367 74.4599 57.8318 74.4993 57.7424L75.9347 54.4875C75.9819 54.3804 76.1105 54.3366 76.2133 54.3925L78.9956 55.9076L81.8072 57.4386C81.8985 57.4884 81.9365 57.5998 81.8945 57.695L80.458 60.9524C80.4135 61.0535 80.2954 61.0993 80.1943 61.0547L78.8339 60.4548L77.3056 59.7809C77.2955 59.7764 77.2858 59.7711 77.2766 59.7651L74.5726 57.9903Z" fill="#2E5DA4"/>
<path d="M82.2679 49.946C81.2898 49.5147 80.8175 48.3958 81.1907 47.3941V47.3941C81.5964 46.3054 82.835 45.7825 83.8981 46.2513L92.4225 50.01L100.85 53.7266C101.871 54.1765 102.333 55.368 101.883 56.3882V56.3882C101.433 57.4087 100.241 57.8713 99.2201 57.4212L91.0101 53.8007L82.2679 49.946Z" fill="#5890CB"/>
<path d="M79.1551 48.5731C79.0582 48.5304 79.0114 48.4196 79.0484 48.3204L80.3209 44.9051C80.3611 44.7972 80.4838 44.7454 80.5891 44.7919L83.3587 46.0133L86.2749 47.2993C86.3711 47.3417 86.418 47.4512 86.3824 47.55L85.1461 50.9813C85.1068 51.0903 84.9832 51.1433 84.8772 51.0965L81.9866 49.8218L79.1551 48.5731Z" fill="#2E5DA4"/>
<path d="M29.4993 80.0261C28.2882 79.7472 27.6689 78.4294 28.1812 77.2949V77.2949C28.5934 76.382 29.6065 75.9018 30.5842 76.1119C33.5257 76.744 39.6544 77.7316 43.5781 76.0595C46.8781 74.6532 50.3185 70.6412 51.7497 68.8381C52.1786 68.2977 52.8717 68.0325 53.5459 68.1742V68.1742C54.6857 68.4138 55.2621 69.6711 54.6397 70.6576C52.886 73.4376 49.3918 78.3017 45.5556 79.8932C42.1139 81.3211 39.8351 81.1708 36.1283 81.056C34.0683 80.9923 31.3836 80.4599 29.4993 80.0261Z" fill="#2E5DA4"/>
<path d="M81.8816 29.993C80.8945 29.9011 80.1306 29.0773 80.1285 28.0859V28.0859C80.1262 27.0251 80.993 26.1711 82.053 26.2137C84.2254 26.3011 87.7898 26.5103 90.3771 26.992C92.9333 27.4679 96.3128 28.5407 98.4464 29.263C99.5628 29.6409 100.095 30.8933 99.6199 31.9717V31.9717C99.1928 32.9401 98.0979 33.4236 97.0894 33.1023C95.1067 32.4706 91.8579 31.4854 89.4288 30.9951C87.0843 30.5219 83.8519 30.1765 81.8816 29.993Z" fill="#2E5DA4"/>
<path d="M27.511 54.3376C28.4589 55.1395 29.9154 56.418 29.9154 56.418C29.9154 56.418 30.0061 54.7986 29.9378 53.7648C29.8726 52.7779 29.8437 52.2123 29.592 51.2564C29.3554 50.3577 29.1588 49.863 28.7301 49.0393C28.2072 48.0347 27.6157 47.6569 27.062 46.6692C26.5527 45.7606 26.3189 45.2157 25.9817 44.2294C25.6456 43.2461 25.4584 42.6788 25.343 41.6453C25.2377 40.7015 25.3556 40.163 25.3636 39.2132C25.3741 37.9755 25.0933 37.2457 25.3904 36.044C25.65 34.994 26.031 34.4743 26.5858 33.5464C26.9789 32.8889 27.6979 32.4149 27.8048 32.0674C27.9116 31.72 29.241 31.395 29.1589 30.7499C29.0794 30.1254 28.2259 30.2553 27.6704 30.4441C27.115 30.6329 26.3847 31.8699 26.3847 31.8699C26.3847 31.8699 25.9153 32.5146 25.4178 32.8012C24.7248 33.2005 24.2024 33.1363 23.5034 33.525C22.841 33.8933 22.4683 34.1369 21.9523 34.6935C21.1831 35.5233 21.0438 36.2177 20.6095 37.2638C20.2046 38.239 20.0426 38.8147 19.7804 39.8377C19.4973 40.9426 19.2163 41.5684 19.2424 42.7085C19.2646 43.6792 19.4549 44.2155 19.7356 45.1442C20.1301 46.4497 20.4482 47.1722 21.1766 48.3235C22.1002 49.7836 22.905 50.4006 24.1581 51.5872C25.3882 52.752 26.218 53.2437 27.511 54.3376Z" fill="#8EBA42"/>
<rect width="1.32782" height="4.64215" rx="0.663909" transform="matrix(0.330195 -0.944399 0.943638 0.329584 27.604 31.1624)" fill="#8EBA42"/>
<path d="M29.962 54.0079C29.9006 55.0561 30.0145 56.4135 30.0145 56.4135L28.0381 51.8439C28.0381 51.8439 26.74 49.6757 25.9549 48.3482C25.1093 46.9183 24.8055 46.0118 24.3092 44.4277C23.8707 43.0282 23.5173 42.2296 23.4873 40.764C23.4537 39.1267 23.7124 38.1722 24.335 36.657C24.9626 35.1296 26.6448 33.1127 26.6448 33.1127C26.6448 33.1127 25.4881 37.0369 25.7505 39.5691C25.9492 41.4875 26.4204 42.5193 27.139 44.3104C28.0927 46.6871 27.9873 47.2559 29.1404 49.5432C30.0017 51.2518 30.082 51.961 29.962 54.0079Z" fill="#55751E"/>
<rect width="0.796797" height="2.81254" rx="0.398398" transform="matrix(0.306254 -0.952884 0.951321 0.305301 27.2793 31.3942)" fill="#8EBA42"/>
<path d="M71.5631 17.2217C86.1833 23.669 87.8728 38.6002 81.4122 53.2506C74.9516 67.901 62.7873 76.7228 48.1671 70.2756C33.547 63.8283 30.0106 48.0827 36.4712 33.4322C42.9318 18.7818 56.943 10.7744 71.5631 17.2217Z" fill="#5890CB"/>
<path d="M28.777 37.8823C28.0927 37.2812 27.8512 36.3044 28.2188 35.471L32.4183 25.948C32.7826 25.1218 33.6549 24.6416 34.5531 24.7352C36.1001 24.8964 38.5167 25.0645 40.2801 24.7953C41.5481 24.6018 43.2788 23.9983 44.9311 23.3276C46.6746 22.6199 48.5355 24.4177 47.7762 26.1394L38.5194 47.1307C37.6833 49.0267 34.6532 48.5757 34.2075 46.5521C33.8092 44.7435 33.2986 43.0584 32.6628 42.0687C31.7013 40.5722 29.948 38.9109 28.777 37.8823Z" fill="#5890CB"/>
<path d="M53.4912 66.9897C48.6606 67.243 43.6888 66.0237 41.7321 65.474C41.4542 65.3959 41.2417 65.6985 41.4309 65.9165C42.9004 67.6095 47.2435 71.8495 54.4823 72.6947C62.175 73.5929 66.1963 71.063 70.5321 67.9823C74.8678 64.9016 78.1527 60.7064 80.7549 54.8055C82.9313 49.8702 84.8058 44.4194 85.2367 41.3075C85.5258 39.219 84.924 35.0656 84.4969 32.5595C84.4085 32.0406 83.7049 32.014 83.5669 32.522C82.9401 34.8303 81.9383 38.5716 81.419 40.7906C80.256 45.7606 79.0087 48.5033 76.1526 52.733C72.9435 57.4856 70.6714 60.1709 65.638 63.0742C61.3588 65.5424 58.5113 66.7265 53.4912 66.9897Z" fill="#3C7BBC"/>
<path d="M33.0329 40.9523C33.5403 41.1503 34.3265 41.4736 34.3265 41.4736C34.3265 41.4736 34.1345 40.7888 33.9596 40.3696C33.7926 39.9695 33.7004 39.7389 33.4603 39.3781C33.2346 39.0389 33.0828 38.8616 32.7879 38.5808C32.4283 38.2384 32.1291 38.1657 31.7591 37.8347C31.4187 37.5301 31.2444 37.3373 30.9645 36.976C30.6854 36.6159 30.5273 36.4071 30.3328 35.9948C30.1552 35.6182 30.1278 35.378 29.9965 34.9828C29.8254 34.4678 29.7925 34.1936 29.7455 33.6528C29.7044 33.1803 29.3736 32.7958 29.6328 32.3986C29.8088 32.1289 30.2077 31.8735 30.2028 31.7141C30.1979 31.5547 30.4978 31.1332 30.2604 30.9757C30.1055 30.8729 29.7886 30.8871 29.7875 31.0328C29.7865 31.1784 29.3146 31.669 29.3146 31.669C29.3146 31.669 29.2752 32.004 29.1092 32.1936C28.878 32.4578 28.6526 32.6267 28.4174 32.8873C28.1945 33.1343 28.0742 33.2884 27.9389 33.5927C27.737 34.0463 27.7777 34.3542 27.7456 34.85C27.7157 35.3122 27.7301 35.5741 27.7662 36.0358C27.8053 36.5344 27.7774 36.834 27.9499 37.3033C28.0967 37.7029 28.2518 37.8983 28.5 38.2437C28.849 38.7293 29.0836 38.9838 29.5493 39.3579C30.14 39.8323 30.5617 39.9739 31.2504 40.288C31.9264 40.5963 32.3408 40.6824 33.0329 40.9523Z" fill="#8EBA42"/>
<path d="M34.004 40.467C34.1271 40.9106 34.3669 41.4576 34.3669 41.4576L32.8982 39.8428C32.8982 39.8428 32.0516 39.1278 31.5373 38.6887C30.9834 38.2157 30.7286 37.8828 30.2979 37.2961C29.9174 36.7778 29.6573 36.4968 29.437 35.893C29.1909 35.2184 29.1631 34.7857 29.2068 34.0685C29.2509 33.3456 29.6635 32.2696 29.6635 32.2696C29.6635 32.2696 29.7396 34.0622 30.2076 35.0754C30.5621 35.8431 30.9041 36.2042 31.4566 36.8451C32.1896 37.6955 32.2265 37.9465 33.0297 38.7315C33.6297 39.3179 33.7636 39.6007 34.004 40.467Z" fill="#55751E"/>
<ellipse cx="48.881" cy="47.5536" rx="4.22583" ry="5.06052" transform="rotate(-66.2032 48.881 47.5536)" fill="#FDFFF9"/>
<ellipse cx="54.5646" cy="34.6656" rx="4.22583" ry="5.06052" transform="rotate(-66.2032 54.5646 34.6656)" fill="#FDFFF9"/>
<ellipse cx="49.4794" cy="46.8937" rx="2.25378" ry="2.53026" transform="rotate(-66.2032 49.4794 46.8937)" fill="#283A0A"/>
<ellipse cx="54.4809" cy="35.552" rx="2.25378" ry="2.53026" transform="rotate(-66.2032 54.4809 35.552)" fill="#283A0A"/>
<path d="M60.1952 37.2258L54.717 49.6484C54.6292 49.8475 54.68 50.0807 54.848 50.2189C55.0337 50.3719 55.2805 50.5657 55.4849 50.6941C56.0427 51.0446 56.3925 51.2025 57.0283 51.3748C59.7302 52.1068 62.251 49.9831 63.5612 48.4056C64.8714 46.828 66.0081 44.2503 65.9483 42.9924C65.8885 41.7344 65.3885 38.5211 63.2804 37.1974C62.7224 36.847 62.3959 36.5231 61.7369 36.5167C61.2572 36.5121 60.6337 36.8589 60.3745 37.0171C60.2942 37.0661 60.2331 37.1397 60.1952 37.2258Z" fill="#141225" fill-opacity="0.5"/>
<mask id="mask0_143_2184" style="mask-type:alpha" maskUnits="userSpaceOnUse" x="62" y="39" width="5" height="8">
<path d="M62.8588 43.4858C63.1922 45.6747 64.9561 47.2188 66.7987 46.9346L65.5915 39.0081C63.749 39.2922 62.5255 41.297 62.8588 43.4858Z" fill="#8EBA42"/>
</mask>
<g mask="url(#mask0_143_2184)">
<path d="M60.1954 37.2258L54.7172 49.6484C54.6295 49.8475 54.6803 50.0807 54.8482 50.2189C55.034 50.3719 55.2807 50.5657 55.4851 50.6941C56.043 51.0446 56.3927 51.2025 57.0286 51.3748C59.7305 52.1068 62.2512 49.9831 63.5614 48.4056C64.8716 46.828 66.0083 44.2503 65.9485 42.9924C65.8888 41.7344 65.3887 38.5211 63.2806 37.1974C62.7227 36.847 62.3961 36.5231 61.7372 36.5167C61.2574 36.5121 60.6339 36.8589 60.3747 37.0171C60.2944 37.0661 60.2334 37.1397 60.1954 37.2258Z" fill="#F57F6B"/>
</g>
<rect x="55.7905" y="47.2139" width="7.88822" height="1.68684" rx="0.2" transform="rotate(-66.2032 55.7905 47.2139)" fill="#FDFFF9"/>
<ellipse cx="62.6708" cy="33.0056" rx="1.69033" ry="1.68684" transform="rotate(-66.2032 62.6708 33.0056)" fill="#2E5DA4"/>
<ellipse cx="53.1224" cy="54.6584" rx="1.69033" ry="1.68684" transform="rotate(-66.2032 53.1224 54.6584)" fill="#2E5DA4"/>
<path fill-rule="evenodd" clip-rule="evenodd" d="M44.052 89.3245C44.3935 89.9442 44.2883 90.6564 44.1029 90.7585C43.9174 90.8608 43.2591 90.5694 42.9175 89.9497C42.5764 89.3306 42.6815 88.6184 42.8671 88.5162C43.0524 88.414 43.7108 88.7054 44.052 89.3245Z" fill="#9193EF"/>
<ellipse cx="31.3443" cy="67.61" rx="1.80856" ry="1.57025" transform="rotate(-29.2882 31.3443 67.61)" fill="#9193EF"/>
<path fill-rule="evenodd" clip-rule="evenodd" d="M40.3396 87.7241L43.5471 85.9564L32.9949 66.8097L29.7874 68.5775L40.3396 87.7241Z" fill="#9193EF"/>
<path fill-rule="evenodd" clip-rule="evenodd" d="M44.1448 89.5795C44.1608 88.9736 44.1596 88.2925 44.118 87.9508C43.9673 86.7196 43.5469 85.9567 43.5469 85.9567L40.3394 87.7245C40.3394 87.7245 40.7381 88.4481 41.7967 89.3198C42.0485 89.5273 42.5897 89.8678 43.0849 90.1636L44.1448 89.5795Z" fill="#5558BE"/>
</svg>
