<svg width="696" height="607" viewBox="0 0 696 607" fill="none" xmlns="http://www.w3.org/2000/svg">
<mask id="mask0_139_1178" style="mask-type:alpha" maskUnits="userSpaceOnUse" x="0" y="0" width="696" height="607">
<rect width="696" height="607" fill="#D9D9D9"/>
</mask>
<g mask="url(#mask0_139_1178)">
<rect width="696" height="399" fill="url(#paint0_linear_139_1178)"/>
<rect y="349" width="696" height="244" fill="url(#paint1_linear_139_1178)"/>
<path d="M18.4271 165.066L-76.5129 209.946C-76.5828 209.979 -76.6274 210.05 -76.6274 210.127V393.007C-76.6274 393.118 -76.5379 393.207 -76.4274 393.207H701.801C701.912 393.207 702.001 393.118 702.001 393.007V279.373C702.001 279.249 701.914 279.15 701.791 279.171C698.563 279.719 658.816 286.239 634.595 279.135C612.379 272.619 605.519 256.365 583.608 248.889C549.113 237.118 526.479 244.666 490.276 248.889C457.029 252.767 406.734 267.816 406.452 267.9C406.443 267.903 406.458 267.897 406.45 267.901C406.181 268.023 353.47 291.965 323.489 279.135C303.514 270.587 299.64 254.929 282.873 241.111C245.431 210.255 176.864 176.438 176.579 176.298C176.57 176.293 176.585 176.302 176.577 176.297C176.315 176.116 125.86 141.294 89.2956 141.73C60.2034 142.077 18.5501 164.998 18.4329 165.063C18.4293 165.065 18.4308 165.064 18.4271 165.066Z" fill="#B8CF92"/>
<path d="M351.413 369.189C345.481 371.069 341.043 381.287 341.043 381.287V392.521H545.855C545.855 392.521 548.155 382.589 545.855 376.966C543.138 370.325 537.809 369.117 532.028 364.868C525.685 360.206 514.744 354.497 514.744 354.497C514.744 354.497 506.829 328.824 493.139 322.523C482.103 317.443 474.01 320.507 462.029 322.523C455.49 323.623 451.376 323.571 445.609 326.844C437.037 331.709 430.054 346.72 430.054 346.72C430.054 346.72 422.136 344.517 417.955 346.72C413.141 349.256 411.042 358.818 411.042 358.818C411.042 358.818 390.95 348.232 380.796 354.497C372.447 359.649 369.561 376.966 369.561 376.966C369.561 376.966 358.764 366.859 351.413 369.189Z" fill="#7A974E"/>
<ellipse cx="273.824" cy="472.158" rx="91.6034" ry="28.4591" fill="#E7BC95"/>
<path d="M255.13 407.531C255.323 404.257 258.034 401.701 261.313 401.701C264.877 401.701 267.706 404.702 267.496 408.26L265.815 436.788L264.09 466.045C263.897 469.319 261.186 471.875 257.907 471.875C254.343 471.875 251.514 468.874 251.724 465.316L253.406 436.788L255.13 407.531Z" fill="#5890CB"/>
<path d="M256.513 396.281C256.529 396.185 256.612 396.114 256.71 396.114H268.422C268.539 396.114 268.631 396.214 268.621 396.331L267.775 406.463L266.926 416.628C266.918 416.732 266.831 416.812 266.727 416.812H255.012C254.902 416.812 254.812 416.722 254.812 416.612V411.637V406.48C254.812 406.469 254.813 406.458 254.815 406.447L256.513 396.281Z" fill="#2E5DA4"/>
<path d="M288.558 408.269C288.558 404.989 291.114 402.279 294.387 402.087C297.945 401.878 300.946 404.707 300.946 408.271L300.947 436.849L300.947 465.104C300.947 468.524 298.175 471.296 294.755 471.296C291.333 471.296 288.559 468.522 288.559 465.101L288.559 437.576L288.558 408.269Z" fill="#5890CB"/>
<path d="M288.558 397.443C288.558 397.337 288.64 397.249 288.746 397.243L300.734 396.539C300.849 396.532 300.946 396.624 300.946 396.739L300.946 406.463L300.946 416.625C300.946 416.73 300.864 416.817 300.76 416.824L288.772 417.659C288.656 417.667 288.558 417.575 288.558 417.459L288.558 407.325L288.558 397.443Z" fill="#2E5DA4"/>
<rect x="238.928" y="459.491" width="28.9547" height="12.3835" rx="6.19174" fill="#283A0A"/>
<rect x="284.429" y="459.491" width="28.9547" height="12.3835" rx="6.19174" fill="#283A0A"/>
<path d="M138.819 297.393C138.103 293.649 141.035 290.28 144.854 290.313C147.926 290.34 150.528 292.59 151.148 295.594C153.015 304.632 157.828 323.056 167.378 331.999C175.409 339.52 190.928 344.211 197.76 345.996C199.808 346.531 201.41 348.148 201.847 350.216C202.585 353.712 199.77 356.885 196.231 356.36C186.257 354.878 168.28 351.091 159.065 342.294C150.798 334.402 148.399 327.82 144.133 317.274C141.763 311.413 139.934 303.219 138.819 297.393Z" fill="#2E5DA4"/>
<path d="M344.082 382.488C343.118 379.604 344.485 376.44 347.265 375.207C350.239 373.888 353.709 375.264 354.901 378.292C357.345 384.497 361.17 394.76 363.02 402.618C364.848 410.382 366.02 421.195 366.634 428.077C366.955 431.678 364.099 434.724 360.483 434.724C357.237 434.724 354.525 432.249 354.178 429.021C353.497 422.674 352.241 412.336 350.611 404.911C349.037 397.745 346.006 388.246 344.082 382.488Z" fill="#2E5DA4"/>
<path d="M208.458 260.018C207.381 263.671 205.595 269.341 205.595 269.341C205.595 269.341 210.253 267.591 213.07 266.12C215.759 264.716 217.311 263.935 219.682 262.045C221.912 260.268 223.057 259.104 224.838 256.881C227.01 254.17 227.339 252.043 229.426 249.266C231.346 246.712 232.585 245.382 234.936 243.214C237.28 241.054 238.641 239.826 241.399 238.223C243.917 236.76 245.575 236.424 248.25 235.271C251.737 233.768 253.438 232.077 257.178 231.423C260.447 230.852 262.377 231.279 265.668 231.687C268 231.977 270.22 233.408 271.328 233.278C272.435 233.148 274.993 236.477 276.702 235.448C278.356 234.452 276.935 232.217 275.718 230.892C274.501 229.567 270.125 229.048 270.125 229.048C270.125 229.048 267.734 228.528 266.314 227.487C264.336 226.036 263.869 224.49 261.913 223.009C260.06 221.606 258.915 220.861 256.714 220.102C253.433 218.97 251.311 219.439 247.837 219.515C244.599 219.585 242.783 219.843 239.587 220.373C236.136 220.946 234.032 220.932 230.864 222.417C228.167 223.68 226.897 224.878 224.638 226.815C221.462 229.539 219.828 231.326 217.498 234.795C214.543 239.195 213.807 242.217 212.028 247.203C210.281 252.097 209.928 255.035 208.458 260.018Z" fill="#8EBA42"/>
<rect width="4.07308" height="14.2398" rx="2" transform="matrix(0.99734 -0.0789365 0.079189 0.996398 273.619 231.594)" fill="#8EBA42"/>
<path d="M212.418 266.489C209.4 267.614 205.731 269.613 205.731 269.613L216.11 258.411C216.11 258.411 220.589 252.083 223.343 248.237C226.31 244.094 228.478 242.119 232.31 238.765C235.695 235.802 237.499 233.822 241.576 231.924C246.129 229.803 249.129 229.348 254.152 229.22C259.216 229.091 266.959 231.316 266.959 231.316C266.959 231.316 254.513 232.926 247.731 236.797C242.592 239.729 240.279 242.329 236.142 246.563C230.651 252.181 228.924 252.589 223.932 258.657C220.202 263.189 218.311 264.292 212.418 266.489Z" fill="#55751E"/>
<rect width="2.44417" height="8.62747" rx="1.22209" transform="matrix(0.995444 -0.104265 0.104507 0.993629 272.567 230.97)" fill="#8EBA42"/>
<path d="M367.156 337.72C367.156 386.734 327.34 409.957 278.224 409.957C229.108 409.957 189.292 386.734 189.292 337.72C189.292 288.706 229.108 259.291 278.224 259.291C327.34 259.291 367.156 288.706 367.156 337.72Z" fill="#5890CB"/>
<path d="M257.132 240.136C257.383 239.26 258.178 238.652 259.089 238.652H297.376C298.279 238.652 299.069 239.25 299.325 240.116C300.403 243.774 303.455 253.44 307.179 259.291C310.94 265.201 320.162 273.617 325.64 278.367C327.062 279.6 326.189 281.994 324.307 281.994H226.091C224.019 281.994 223.257 279.142 225.033 278.075C232.899 273.353 245.291 265.306 249.269 259.291C253.092 253.513 256.08 243.822 257.132 240.136Z" fill="#5890CB"/>
<path d="M205.104 348.596C197.581 333.701 195.064 316 194.557 311.863C194.522 311.577 194.159 311.491 194.023 311.746C191.903 315.736 182.985 334.655 190.318 358.439C197.319 381.142 209.397 389.297 223.41 397.653C237.423 406.009 253.263 410.037 273.046 410.037C289.592 410.037 307.211 408.551 316.478 405.909C324.088 403.739 338.725 393.999 343.716 390.585C344.151 390.287 343.879 389.627 343.358 389.705C337.674 390.551 321.708 392.959 313.204 394.554C297.815 397.441 288.574 397.335 273.167 394.554C255.856 391.429 245.507 388.376 231.128 377.842C218.904 368.887 212.056 362.36 205.104 348.596Z" fill="#3C7BBC"/>
<path d="M252.861 258.949C252.934 260.618 253 263.224 253 263.224C253 263.224 254.684 261.838 255.644 260.828C256.56 259.864 257.093 259.32 257.809 258.2C258.482 257.146 258.791 256.501 259.214 255.326C259.73 253.893 259.564 252.963 260.035 251.515C260.469 250.182 260.794 249.454 261.462 248.222C262.127 246.993 262.517 246.29 263.434 245.234C264.271 244.27 264.911 243.895 265.858 243.038C267.092 241.92 267.821 241.488 269.28 240.687C270.556 239.987 271.225 238.582 272.661 238.818C273.636 238.979 274.846 239.782 275.288 239.571C275.729 239.36 277.283 239.68 277.432 238.819C277.528 238.257 277.096 237.385 276.686 237.562C276.276 237.739 274.315 237.022 274.315 237.022C274.315 237.022 273.326 237.326 272.588 237.095C271.561 236.773 270.808 236.35 269.785 236.012C268.816 235.692 268.235 235.545 267.213 235.542C265.69 235.537 264.876 236.032 263.445 236.556C262.111 237.044 261.393 237.408 260.142 238.081C258.791 238.808 257.916 239.101 256.812 240.166C255.872 241.072 255.516 241.749 254.853 242.874C253.923 244.454 253.499 245.428 253.025 247.198C252.424 249.443 252.549 250.802 252.52 253.123C252.491 255.402 252.763 256.672 252.861 258.949Z" fill="#8EBA42"/>
<path d="M255.426 261.074C254.333 261.968 253.095 263.318 253.095 263.318L255.809 257.197C255.809 257.197 256.768 253.936 257.364 251.949C258.006 249.809 258.625 248.682 259.739 246.747C260.722 245.038 261.189 243.96 262.611 242.594C264.2 241.069 265.38 240.455 267.447 239.69C269.531 238.919 273.061 238.745 273.061 238.745C273.061 238.745 268.124 241.177 265.86 243.745C264.144 245.69 263.554 247.097 262.439 249.441C260.959 252.551 260.3 252.965 259.091 256.191C258.188 258.601 257.56 259.327 255.426 261.074Z" fill="#55751E"/>
<ellipse cx="253.948" cy="311.6" rx="12.9627" ry="15.5231" fill="#FDFFF9"/>
<ellipse cx="297.157" cy="311.6" rx="12.9627" ry="15.5231" fill="#FDFFF9"/>
<ellipse cx="256.541" cy="312.463" rx="6.91346" ry="7.76157" fill="#283A0A"/>
<ellipse cx="294.565" cy="312.463" rx="6.91346" ry="7.76157" fill="#283A0A"/>
<path d="M297.237 330.573H254.537C254.32 330.573 254.127 330.714 254.064 330.922C253.868 331.572 253.459 332.994 253.308 334.023C253.015 336.022 253.004 337.199 253.308 339.197C254.598 347.687 263.678 352.133 269.727 353.858C275.777 355.583 284.419 355.583 287.875 353.858C291.332 352.133 299.732 346.752 300.838 339.197C301.131 337.198 301.636 335.88 300.838 334.023C300.181 332.493 298.034 331.004 297.502 330.651C297.423 330.6 297.331 330.573 297.237 330.573Z" fill="#141225" fill-opacity="0.5"/>
<mask id="mask1_139_1178" style="mask-type:alpha" maskUnits="userSpaceOnUse" x="276" y="343" width="23" height="19">
<path d="M282.666 345.797C276.935 349.442 274.785 356.304 277.863 361.123L298.616 347.925C295.538 343.105 288.397 342.152 282.666 345.797Z" fill="#8EBA42"/>
</mask>
<g mask="url(#mask1_139_1178)">
<path d="M297.237 330.573H254.537C254.32 330.573 254.127 330.714 254.064 330.922C253.868 331.572 253.459 332.994 253.308 334.023C253.015 336.022 253.004 337.2 253.308 339.197C254.597 347.687 263.678 352.133 269.727 353.858C275.777 355.583 284.418 355.583 287.875 353.858C291.332 352.133 299.732 346.753 300.838 339.197C301.131 337.198 301.635 335.88 300.838 334.023C300.181 332.494 298.034 331.004 297.502 330.652C297.423 330.6 297.331 330.573 297.237 330.573Z" fill="#F57F6B"/>
</g>
<rect x="263.454" y="330.573" width="24.1971" height="5.17438" rx="0.2" fill="#FDFFF9"/>
<ellipse cx="311.849" cy="332.298" rx="5.1851" ry="5.17438" fill="#2E5DA4"/>
<ellipse cx="239.257" cy="332.298" rx="5.1851" ry="5.17438" fill="#2E5DA4"/>
<ellipse cx="58.7643" cy="351.722" rx="34.5673" ry="19.8762" fill="#7A974E"/>
<ellipse cx="45.8016" cy="334.439" rx="12.9627" ry="19.8762" fill="#7A974E"/>
<ellipse cx="71.7271" cy="334.439" rx="12.9627" ry="19.8762" fill="#7A974E"/>
<ellipse cx="59.6285" cy="315.427" rx="12.9627" ry="19.8762" fill="#7A974E"/>
<rect x="57.036" y="319.748" width="3.45673" height="79.5048" rx="1.72837" fill="#2E4A07"/>
<rect x="70.043" y="340.488" width="3.45673" height="17.3647" rx="1.72837" transform="rotate(48.5088 70.043 340.488)" fill="#2E4A07"/>
<rect x="46.6658" y="336.114" width="3.45673" height="15.725" rx="1.72837" transform="rotate(-47.2679 46.6658 336.114)" fill="#2E4A07"/>
<ellipse cx="552.929" cy="450.131" rx="71.7272" ry="41.2431" fill="#8EBA42"/>
<ellipse cx="526.031" cy="414.268" rx="26.8977" ry="41.2431" fill="#8EBA42"/>
<ellipse cx="579.827" cy="414.268" rx="26.8977" ry="41.2431" fill="#8EBA42"/>
<ellipse cx="554.722" cy="374.818" rx="26.8977" ry="41.2431" fill="#8EBA42"/>
<rect x="549.343" y="383.784" width="7.17272" height="164.972" rx="2" fill="#2E4A07"/>
<rect x="576.333" y="426.82" width="7.17272" height="36.0317" rx="2" transform="rotate(48.5088 576.333 426.82)" fill="#2E4A07"/>
<rect x="527.825" y="417.743" width="7.17272" height="32.6294" rx="2" transform="rotate(-47.2679 527.825 417.743)" fill="#2E4A07"/>
</g>
<defs>
<linearGradient id="paint0_linear_139_1178" x1="348" y1="0" x2="348" y2="560.231" gradientUnits="userSpaceOnUse">
<stop stop-color="#DEF0D0"/>
<stop offset="1" stop-color="#DEF0D0" stop-opacity="0"/>
</linearGradient>
<linearGradient id="paint1_linear_139_1178" x1="314.743" y1="398.573" x2="314.743" y2="539.817" gradientUnits="userSpaceOnUse">
<stop stop-color="#F3D2B4"/>
<stop offset="1" stop-color="#F3D2B4" stop-opacity="0"/>
</linearGradient>
</defs>
</svg>
