<svg width="320" height="148" viewBox="0 0 320 148" fill="none" xmlns="http://www.w3.org/2000/svg">
<mask id="mask0_216_1309" style="mask-type:alpha" maskUnits="userSpaceOnUse" x="0" y="44" width="320" height="104">
<rect y="44" width="320" height="104" fill="url(#paint0_linear_216_1309)"/>
</mask>
<g mask="url(#mask0_216_1309)">
<mask id="mask1_216_1309" style="mask-type:alpha" maskUnits="userSpaceOnUse" x="85" y="10" width="169" height="169">
<circle cx="169.5" cy="94.5" r="84.5" fill="#DED8F0"/>
</mask>
<g mask="url(#mask1_216_1309)">
<circle cx="120.791" cy="72.0359" r="13.045" transform="rotate(-29.6558 120.791 72.0359)" fill="#FFFEFF"/>
<circle cx="124.734" cy="69.7908" r="13.045" transform="rotate(-29.6558 124.734 69.7908)" fill="url(#paint1_linear_216_1309)"/>
</g>
</g>
<rect x="201.011" y="126.896" width="72.4561" height="92.1274" rx="10" transform="rotate(-146.891 201.011 126.896)" fill="#EFB076"/>
<rect x="195.839" y="116.35" width="52.8775" height="32.7616" rx="10" transform="rotate(-146.891 195.839 116.35)" fill="#E08F4B"/>
<path d="M197.259 98.0187C198.084 97.4248 199.389 96.5213 199.389 96.5213C199.389 96.5213 198.122 96.1287 197.289 95.9783C196.493 95.8346 196.038 95.7456 195.23 95.7562C194.47 95.7662 194.038 95.8244 193.299 96.0018C192.398 96.2181 191.98 96.613 191.086 96.8571C190.264 97.0816 189.785 97.1594 188.935 97.2319C188.088 97.3042 187.601 97.3405 186.758 97.2275C185.988 97.1243 185.585 96.9241 184.833 96.7297C183.853 96.4764 183.218 96.5548 182.324 96.081C181.543 95.667 181.207 95.2615 180.581 94.6373C180.138 94.1949 179.778 93.5864 179.523 93.4328C179.269 93.2791 179.318 92.0484 178.831 92.2606C178.512 92.3991 178.213 92.9095 178.44 93.0586C178.666 93.2077 179.298 94.3054 179.298 94.3054C179.298 94.3054 179.629 94.9654 179.757 95.4173C179.936 96.0466 179.781 96.4487 179.949 97.0807C180.11 97.6796 180.228 98.0238 180.567 98.5437C181.072 99.3188 181.595 99.5669 182.338 100.119C183.031 100.633 183.455 100.876 184.215 101.287C185.035 101.73 185.475 102.077 186.385 102.282C187.159 102.457 187.622 102.412 188.415 102.373C189.53 102.318 190.166 102.209 191.225 101.858C192.567 101.414 193.217 100.897 194.408 100.137C195.578 99.3905 196.133 98.8289 197.259 98.0187Z" fill="#8EBA42"/>
<rect x="178.893" y="93.3566" width="1.08578" height="3.80023" rx="0.54289" transform="rotate(-146.681 178.893 93.3566)" fill="#8EBA42"/>
<path d="M179.333 51.966C179.262 52.6059 178.718 53.0924 178.074 53.0822C177.385 53.0713 176.841 52.4985 176.881 51.8107C176.963 50.401 177.14 48.0887 177.483 46.4142C177.822 44.7597 178.558 42.5776 179.052 41.2005C179.31 40.48 180.13 40.1486 180.824 40.47C181.448 40.7586 181.75 41.4753 181.529 42.1264C181.096 43.4066 180.418 45.5049 180.072 47.0766C179.737 48.5936 179.475 50.6886 179.333 51.966Z" fill="#2E5DA4"/>
<path d="M215.2 75.5747C214.629 75.8728 214.373 76.5558 214.616 77.1523C214.875 77.7905 215.606 78.0905 216.233 77.8041C217.517 77.2172 219.608 76.2145 221.045 75.2884C222.464 74.3734 224.232 72.8972 225.337 71.9381C225.915 71.4363 225.927 70.5525 225.376 70.0213C224.881 69.5443 224.104 69.5231 223.577 69.9643C222.54 70.8317 220.83 72.2233 219.49 73.1156C218.197 73.9768 216.339 74.9797 215.2 75.5747Z" fill="#2E5DA4"/>
<path d="M210.574 57.4047C210.159 57.9614 209.383 58.0983 208.802 57.717C208.172 57.3024 208.02 56.4426 208.471 55.8375L212.087 50.9855L215.794 46.0096C216.209 45.4529 216.986 45.316 217.566 45.6974C218.197 46.1119 218.349 46.9717 217.898 47.5768L214.282 52.4288L210.574 57.4047Z" fill="#5890CB"/>
<path d="M204.745 53.3856C204.364 53.9658 203.596 54.1481 202.995 53.8014C202.341 53.4246 202.139 52.575 202.554 51.9444L205.877 46.888L209.163 41.8889C209.561 41.2837 210.374 41.1157 210.979 41.5135C211.585 41.9114 211.753 42.7248 211.355 43.3301L208.154 48.2L204.745 53.3856Z" fill="#5890CB"/>
<rect x="221.082" y="49.3424" width="6.13067" height="2.622" rx="1.311" transform="rotate(-163.455 221.082 49.3424)" fill="#283A0A"/>
<rect x="210.222" y="44.3217" width="6.13067" height="2.622" rx="1.311" transform="rotate(-118.457 210.222 44.3217)" fill="#283A0A"/>
<path d="M203.923 54.6504C203.864 54.7389 203.747 54.7667 203.656 54.7138L201.726 53.6019C201.627 53.5445 201.596 53.4149 201.659 53.3187L202.681 51.7643L203.795 50.069C203.855 49.9787 203.975 49.9519 204.067 50.0085L205.962 51.1729C206.058 51.232 206.086 51.3589 206.024 51.4532L204.99 53.0261L203.923 54.6504Z" fill="#2E5DA4"/>
<path d="M209.642 58.5875C209.576 58.6708 209.457 58.6888 209.37 58.6285L207.54 57.3602C207.445 57.2947 207.426 57.163 207.497 57.0724L208.644 55.6082L209.79 53.9367C209.855 53.8415 209.987 53.8212 210.078 53.8924L211.935 55.3472C212.022 55.4155 212.037 55.5417 211.969 55.6286L210.84 57.0574L209.642 58.5875Z" fill="#2E5DA4"/>
<path d="M173.931 55.9681C181.119 45.0324 193.39 45.6786 204.326 52.8671C215.262 60.0557 220.721 71.0644 213.533 82.0002C206.344 92.9359 193.165 93.6712 182.229 86.4826C171.293 79.2941 166.742 66.9039 173.931 55.9681Z" fill="#5890CB"/>
<path d="M184.989 93.1176C184.278 93.6877 183.275 93.765 182.514 93.2645L175.876 88.9014C175.121 88.4052 174.793 87.465 175.028 86.5926C175.358 85.3653 175.761 83.6025 175.782 82.2449C175.795 81.4383 175.649 80.3788 175.438 79.2851C175.081 77.4386 177.165 75.8998 178.736 76.9329L192.369 85.8943C194.1 87.032 193.149 89.9607 191.09 90.1877C190.13 90.2935 189.277 90.462 188.676 90.7205C187.432 91.2546 185.981 92.3218 184.989 93.1176Z" fill="#5890CB"/>
<path d="M211.607 77.2593C211.168 81.07 209.597 84.8016 208.854 86.4004C208.733 86.6624 208.998 86.9181 209.242 86.764C210.895 85.7218 214.724 82.7925 216.343 77.2273C218.114 71.1374 216.62 67.5501 214.726 63.6348C212.831 59.7196 209.895 56.5026 205.49 53.6072C201.807 51.1856 197.666 48.9383 195.215 48.1715C193.667 47.6871 190.536 47.5936 188.439 47.5905C187.913 47.5897 187.768 48.2752 188.247 48.4947C190.033 49.3147 192.667 50.5108 194.279 51.1841C198.128 52.7923 200.17 54.1685 203.193 57.0439C206.589 60.2747 208.445 62.4706 210.102 66.9253C211.51 70.7125 212.078 73.1709 211.607 77.2593Z" fill="#3C7BBC"/>
<path d="M196.851 76.8518C196.851 76.8518 196.617 74.9153 195.686 74.4325C194.888 74.0185 193.388 74.5752 193.388 74.5752" stroke="#0E1D01"/>
<path d="M190.116 72.4249C190.116 72.4249 189.882 70.4884 188.951 70.0056C188.153 69.5916 186.653 70.1482 186.653 70.1482" stroke="#0E1D01"/>
<path d="M199.71 74.5978C199.71 74.5978 198.532 71.1543 196.995 69.5063C195.584 67.9938 194.547 67.2015 192.569 66.5973C190.637 66.0068 187.396 66.5031 187.396 66.5031" stroke="#0E1D01"/>
<circle cx="185.449" cy="65.2722" r="1.38156" transform="rotate(-146.681 185.449 65.2722)" fill="#2E5DA4"/>
<circle cx="201.612" cy="75.8968" r="1.38156" transform="rotate(-146.681 201.612 75.8968)" fill="#2E5DA4"/>
<path d="M197.486 96.0068C198.305 96.2631 199.405 96.4414 199.405 96.4414L195.386 97.1061C195.386 97.1061 193.407 97.7077 192.197 98.0683C190.894 98.4567 190.114 98.5185 188.759 98.599C187.561 98.6701 186.857 98.7927 185.688 98.5264C184.383 98.2289 183.677 97.8345 182.6 97.0401C181.513 96.2393 180.249 94.5043 180.249 94.5043C180.249 94.5043 183.131 96.1997 185.192 96.4926C186.754 96.7146 187.666 96.5447 189.23 96.3286C191.306 96.0419 191.736 96.2382 193.78 95.7754C195.308 95.4297 195.886 95.5063 197.486 96.0068Z" fill="#55751E"/>
<defs>
<linearGradient id="paint0_linear_216_1309" x1="160" y1="44" x2="160" y2="148" gradientUnits="userSpaceOnUse">
<stop stop-color="#DED8F0"/>
<stop offset="1" stop-color="#DED8F0" stop-opacity="0"/>
</linearGradient>
<linearGradient id="paint1_linear_216_1309" x1="128.362" y1="59.8341" x2="118.237" y2="80.4913" gradientUnits="userSpaceOnUse">
<stop stop-color="#E1DCF1"/>
<stop offset="1" stop-color="#EAE7F4"/>
</linearGradient>
</defs>
</svg>
