<svg width="512" height="512" viewBox="0 0 512 512" fill="none" xmlns="http://www.w3.org/2000/svg">
<g clip-path="url(#clip0_295_837)">
<path d="M82.0315 122.225C79.275 131.575 74.7071 146.089 74.7071 146.089C74.7071 146.089 86.6216 141.61 93.828 137.844C100.707 134.25 104.677 132.25 110.743 127.414C116.447 122.867 119.376 119.887 123.933 114.198C129.49 107.259 130.33 101.813 135.669 94.7064C140.58 88.1694 143.751 84.7637 149.766 79.2167C155.761 73.6866 159.242 70.5449 166.297 66.442C172.739 62.6955 176.98 61.8361 183.825 58.8848C192.744 55.0392 197.095 50.71 206.663 49.0375C215.025 47.576 219.963 48.6665 228.381 49.7126C234.347 50.4539 240.026 54.1175 242.86 53.7844C245.693 53.4513 252.235 61.9714 256.607 59.3385C260.839 56.7891 257.204 51.0689 254.09 47.6768C250.976 44.2846 239.782 42.9568 239.782 42.9568C239.782 42.9568 233.667 41.6275 230.033 38.9613C224.973 35.2476 223.779 31.2917 218.776 27.5017C214.034 23.9098 211.105 22.0038 205.475 20.0603C197.081 17.1631 191.655 18.3626 182.768 18.5566C174.484 18.7374 169.838 19.3971 161.662 20.7547C152.833 22.2208 147.451 22.1851 139.347 25.9841C132.448 29.2185 129.2 32.2847 123.421 37.2431C115.296 44.2137 111.116 48.7876 105.156 57.6671C97.597 68.9278 95.7149 76.6638 91.163 89.4254C86.6949 101.952 85.7915 109.471 82.0315 122.225Z" fill="#FD994B"/>
<rect width="10.4208" height="36.4425" rx="2" transform="matrix(0.997217 -0.0789698 0.0791557 0.996522 248.725 49.4755)" fill="#FD994B"/>
<path d="M92.159 138.787C84.4389 141.666 75.0532 146.785 75.0532 146.785L101.605 118.111C101.605 118.111 113.062 101.916 120.108 92.0706C127.697 81.4666 133.243 76.412 143.046 67.8283C151.706 60.2449 156.321 55.1762 166.749 50.3171C178.398 44.8891 186.07 43.724 198.921 43.3965C211.875 43.0663 231.682 48.7612 231.682 48.7612C231.682 48.7612 199.844 52.8838 182.494 62.7902C169.349 70.2958 163.433 76.9495 152.849 87.7859C138.803 102.166 134.385 103.211 121.613 118.741C112.073 130.341 107.236 133.165 92.159 138.787Z" fill="#FD994B"/>
<path d="M488 321.108C488 446.561 386.145 506 260.5 506C134.855 506 33 446.561 33 321.108C33 195.654 134.855 120.367 260.5 120.367C386.145 120.367 488 195.654 488 321.108Z" fill="#FD994B"/>
<path d="M207.195 69.0316C207.436 68.1531 208.232 67.5398 209.143 67.5398H311.88C312.783 67.5398 313.574 68.1414 313.822 69.01C315.735 75.7336 324.118 103.93 334.573 120.366C345.979 138.298 377.019 165.247 388.461 174.888C389.899 176.1 389.033 178.475 387.151 178.475H114.914C112.842 178.475 112.078 175.676 113.875 174.645C130.775 164.949 174.187 138.89 186.434 120.366C197.17 104.127 205.332 75.8159 207.195 69.0316Z" fill="#FD994B"/>
<path d="M195.62 119.489C195.805 123.761 195.973 130.433 195.973 130.433C195.973 130.433 200.282 126.885 202.738 124.3C205.082 121.833 206.446 120.44 208.276 117.572C209.997 114.876 210.789 113.224 211.872 110.216C213.192 106.548 212.766 104.168 213.971 100.462C215.08 97.0517 215.913 95.1884 217.62 92.0331C219.323 88.8875 220.321 87.09 222.666 84.3866C224.807 81.918 226.445 80.9601 228.867 78.7646C232.022 75.9038 233.887 74.7988 237.621 72.748C240.884 70.9559 242.597 67.3611 246.27 67.9652C248.763 68.3753 251.86 70.4314 252.989 69.8915C254.118 69.3515 258.094 70.1703 258.473 67.9663C258.721 66.5277 257.615 64.2963 256.566 64.75C255.517 65.2037 250.501 63.3684 250.501 63.3684C250.501 63.3684 247.971 64.1461 246.083 63.5544C243.454 62.7304 241.528 61.6461 238.912 60.7823C236.433 59.9636 234.946 59.5876 232.333 59.5791C228.437 59.5664 226.355 60.8337 222.693 62.1741C219.281 63.4236 217.446 64.3562 214.245 66.0787C210.788 67.9392 208.549 68.6874 205.726 71.4132C203.322 73.7339 202.409 75.4672 200.716 78.3449C198.334 82.3902 197.25 84.8814 196.038 89.4123C194.502 95.1583 194.821 98.6364 194.746 104.579C194.673 110.412 195.367 113.662 195.62 119.489Z" fill="#FD994B"/>
<path d="M202.181 124.93C199.386 127.22 196.217 130.675 196.217 130.675L203.161 115.008C203.161 115.008 205.614 106.661 207.139 101.575C208.781 96.0979 210.365 93.2133 213.213 88.2605C215.73 83.8848 216.924 81.1265 220.562 77.6311C224.626 73.7263 227.645 72.1549 232.932 70.1972C238.263 68.2235 247.295 67.7794 247.295 67.7794C247.295 67.7794 234.665 74.0045 228.872 80.5764C224.482 85.5557 222.973 89.1564 220.12 95.1551C216.335 103.116 214.65 104.176 211.557 112.433C209.246 118.601 207.64 120.459 202.181 124.93Z" fill="#FD994B"/>
</g>
<defs>
<clipPath id="clip0_295_837">
<rect width="512" height="512" fill="white"/>
</clipPath>
</defs>
</svg>
